{
.appVersion = "3258";
.formatVersion = 3;
DisplayStrings = (
"ABCDEFGHIJKLMNOPQRSTUVWXYZ
123456789"
);
axes = (
{
name = sharp;
tag = SHAP;
}
);
date = "2024-05-08 04:35:24 +0000";
familyName = "New Font";
fontMaster = (
{
axesValues = (
0
);
id = m01;
metricValues = (
{
over = 16;
pos = 800;
},
{
over = 16;
pos = 700;
},
{
over = 16;
pos = 500;
},
{
over = -16;
},
{
over = -16;
pos = -200;
},
{
}
);
name = Regular;
visible = 1;
},
{
axesValues = (
100
);
id = m002;
metricValues = (
{
over = 16;
pos = 800;
},
{
over = 16;
pos = 700;
},
{
over = 16;
pos = 500;
},
{
over = -16;
},
{
over = -16;
pos = -200;
},
{
}
);
name = SHARP;
}
);
glyphs = (
{
glyphname = A;
lastChange = "2024-05-10 01:44:19 +0000";
layers = (
{
layerId = m01;
shapes = (
{
closed = 1;
nodes = (
(310,700,o),
(300,701,o),
(300,677,cs),
(300,662,o),
(305,601,o),
(272,600,cs),
(230,599,o),
(200,607,o),
(200,569,cs),
(200,531,o),
(198,502,o),
(171,500,cs),
(138,498,o),
(100,508,o),
(100,467,cs),
(100,422,o),
(95,400,o),
(123,400,cs),
(180,400,l),
(191,400,o),
(200,390,o),
(200,367,cs),
(200,326,ls),
(200,316,o),
(201,301,o),
(168,300,cs),
(134,299,o),
(100,304,o),
(100,276,cs),
(100,36,ls),
(100,-2,o),
(105,0,o),
(123,0,c),
(179,0,l),
(200,0,o),
(200,12,o),
(200,30,c),
(200,267,l),
(200,285,o),
(208,300,o),
(233,300,cs),
(557,300,ls),
(577,300,o),
(600,287,o),
(600,257,cs),
(600,38,ls),
(600,10,o),
(598,1,o),
(618,0,c),
(679,0,l),
(698,-1,o),
(700,9,o),
(700,34,c),
(700,268,l),
(700,292,o),
(693,300,o),
(663,300,cs),
(633,300,o),
(600,294,o),
(600,347,cs),
(600,402,o),
(612,400,o),
(642,400,cs),
(694,400,o),
(700,391,o),
(700,438,cs),
(700,477,o),
(704,500,o),
(673,500,cs),
(642,500,o),
(600,497,o),
(600,542,cs),
(600,587,o),
(602,601,o),
(569,600,cs),
(540,599,o),
(499,595,o),
(500,634,cs),
(501,673,o),
(503,700,o),
(478,700,cs),
(349,700,l)
);
},
{
closed = 1;
nodes = (
(479,601,ls),
(503,601,o),
(500,575,o),
(500,533,cs),
(500,488,o),
(538,503,o),
(575,500,cs),
(594,498,o),
(597,485,o),
(599,464,cs),
(599,458,o),
(600,451,o),
(600,444,cs),
(602,410,o),
(591,400,o),
(560,400,c),
(220,400,ls),
(192,400,o),
(200,452,o),
(200,470,cs),
(200,493,o),
(218,501,o),
(243,500,cs),
(302,498,o),
(300,502,o),
(300,528,cs),
(300,554,o),
(300,550,o),
(300,572,cs),
(300,594,o),
(311,600,o),
(362,599,c)
);
}
);
width = 800;
},
{
layerId = m002;
shapes = (
{
closed = 1;
nodes = (
(399,700,o),
(383,667,o),
(369,653,cs),
(339,624,o),
(302,599,o),
(269,596,cs),
(168,587,o),
(204,623,o),
(208,575,cs),
(211,537,o),
(167,500,o),
(147,500,cs),
(136,500,o),
(139,500,o),
(139,500,cs),
(139,557,o),
(139,414,o),
(139,400,cs),
(139,389,l),
(139,364,o),
(137,376,o),
(148,364,cs),
(179,330,ls),
(201,306,o),
(223,312,o),
(168,310,cs),
(89,307,o),
(100,310,o),
(100,285,cs),
(100,36,ls),
(100,-2,o),
(100,0,o),
(100,0,c),
(200,0,l),
(200,0,o),
(200,12,o),
(200,30,c),
(200,267,l),
(199,324,o),
(212,300,o),
(237,300,cs),
(557,300,ls),
(577,300,o),
(600,287,o),
(600,257,cs),
(600,0,ls),
(600,0,o),
(647,0,o),
(647,0,c),
(700,0,l),
(700,0,o),
(700,9,o),
(700,34,c),
(700,299,l),
(701,307,o),
(574,302,o),
(587,302,cs),
(593,302,o),
(619,339,o),
(675,363,cs),
(675,363,o),
(675,386,o),
(675,386,cs),
(675,432,o),
(675,452,o),
(675,499,cs),
(675,499,o),
(642,497,o),
(629,504,cs),
(611,513,o),
(599,528,o),
(602,573,cs),
(607,643,o),
(644,592,o),
(535,599,cs),
(506,601,o),
(460,626,o),
(431,653,cs),
(414,669,o),
(401,700,o),
(401,700,cs),
(399,700,l)
);
},
{
closed = 1;
nodes = (
(401,691,ls),
(402,691,o),
(456,600,o),
(510,554,cs),
(510,554,o),
(584,614,o),
(594,594,cs),
(605,572,o),
(568,512,o),
(613,496,cs),
(624,492,o),
(636,491,o),
(636,491,cs),
(573,494,o),
(625,388,o),
(581,302,c),
(234,301,ls),
(190,301,o),
(201,452,o),
(200,470,cs),
(198,494,o),
(154,492,o),
(179,491,cs),
(238,489,o),
(207,563,o),
(207,589,cs),
(207,615,o),
(278,554,o),
(278,554,cs),
(350,603,o),
(361,641,o),
(399,691,c)
);
}
);
width = 799;
}
);
unicode = 65;
},
{
glyphname = B;
lastChange = "2024-05-10 01:45:19 +0000";
layers = (
{
layerId = m01;
shapes = (
{
closed = 1;
nodes = (
(216,700,o),
(199,699,o),
(200,668,cs),
(201,637,o),
(190,602,o),
(156,600,cs),
(128,598,o),
(100,602,o),
(100,570,cs),
(100,446,l),
(100,409,o),
(115,401,o),
(148,400,cs),
(181,399,o),
(199,394,o),
(200,364,c),
(200,330,ls),
(200,319,o),
(197,301,o),
(165,300,c),
(123,300,l),
(106,300,o),
(100,288,o),
(100,259,cs),
(100,36,ls),
(100,5,o),
(106,0,o),
(142,0,cs),
(561,0,l),
(596,1,o),
(600,8,o),
(600,44,cs),
(600,79,o),
(615,100,o),
(652,100,cs),
(688,100,o),
(700,106,o),
(700,153,c),
(700,275,l),
(700,294,o),
(683,301,o),
(653,300,cs),
(619,299,o),
(600,302,o),
(600,336,cs),
(600,378,o),
(596,400,o),
(632,400,cs),
(668,400,o),
(699,397,o),
(700,435,c),
(700,574,l),
(700,594,o),
(689,601,o),
(660,600,cs),
(631,599,o),
(600,598,o),
(600,638,cs),
(600,678,o),
(599,700,o),
(569,700,cs),
(255,699,l)
);
},
{
closed = 1;
nodes = (
(561,600,ls),
(584,600,o),
(600,590,o),
(600,563,c),
(600,445,ls),
(600,407,o),
(581,402,o),
(539,400,c),
(252,399,ls),
(213,399,o),
(199,416,o),
(199,437,cs),
(202,557,ls),
(202,603,o),
(222,601,o),
(264,600,c)
);
},
{
closed = 1;
nodes = (
(554,300,ls),
(582,300,o),
(600,298,o),
(600,268,cs),
(600,151,l),
(600,109,o),
(595,100,o),
(558,100,cs),
(312,100,ls),
(223,100,o),
(200,118,o),
(200,136,cs),
(200,264,ls),
(200,307,o),
(216,299,o),
(265,299,c)
);
}
);
width = 800;
},
{
layerId = m002;
shapes = (
{
closed = 1;
nodes = (
(100,700,o),
(100,667,o),
(100,667,cs),
(93,634,o),
(34,601,o),
(0,601,cs),
(0,601,o),
(0,601,o),
(0,569,cs),
(0,400,l),
(0,400,o),
(0,399,o),
(33,400,cs),
(106,403,o),
(102,430,o),
(103,400,c),
(101,390,ls),
(91,342,o),
(81,301,o),
(49,300,c),
(0,300,l),
(0,300,o),
(0,287,o),
(0,258,cs),
(0,0,ls),
(0,0,o),
(6,0,o),
(42,0,cs),
(500,0,l),
(500,0,o),
(531,0,o),
(531,0,cs),
(531,0,o),
(600,0,o),
(600,0,cs),
(600,0,o),
(600,105,o),
(600,152,c),
(600,300,l),
(600,300,o),
(582,301,o),
(552,300,cs),
(518,299,o),
(506,366,o),
(500,400,cs),
(496,424,o),
(495,400,o),
(538,400,cs),
(576,400,o),
(600,400,o),
(600,400,c),
(600,601,l),
(600,601,o),
(591,601,o),
(591,601,cs),
(564,601,o),
(506,603,o),
(500,677,cs),
(499,692,o),
(500,700,o),
(500,700,cs),
(100,700,l)
);
},
{
closed = 1;
nodes = (
(484,698,ls),
(503,698,o),
(500,589,o),
(500,562,c),
(500,444,ls),
(500,396,o),
(487,401,o),
(482,400,c),
(152,398,ls),
(113,398,o),
(99,415,o),
(99,436,cs),
(100,555,ls),
(100,608,o),
(96,699,o),
(125,698,c)
);
},
{
closed = 1;
nodes = (
(493,398,ls),
(512,398,o),
(500,297,o),
(500,267,cs),
(496,11,l),
(496,2,o),
(503,10,o),
(477,10,cs),
(105,8,ls),
(97,8,o),
(100,3,o),
(100,10,cs),
(98,300,ls),
(98,304,o),
(88,401,o),
(118,397,c)
);
}
);
width = 600;
}
);
unicode = 66;
},
{
glyphname = C;
lastChange = "2024-05-10 01:45:56 +0000";
layers = (
{
layerId = m01;
shapes = (
{
closed = 1;
nodes = (
(139,600,l),
(120,600,o),
(100,595,o),
(100,553,cs),
(100,153,ls),
(100,105,o),
(101,100,o),
(131,100,cs),
(251,100,ls),
(280,100,o),
(300,97,o),
(300,67,cs),
(300,15,o),
(297,5,o),
(344,0,c),
(563,0,l),
(601,0,o),
(600,3,o),
(600,46,cs),
(600,97,o),
(600,100,o),
(554,100,cs),
(339,100,l),
(309,100,o),
(300,101,o),
(300,138,cs),
(300,175,o),
(306,197,o),
(267,200,cs),
(230,203,o),
(202,187,o),
(202,240,cs),
(200,464,l),
(200,486,o),
(208,500,o),
(248,500,cs),
(278,500,o),
(300,500,o),
(300,542,cs),
(300,584,o),
(303,599,o),
(281,600,c),
(230,600,l)
);
},
{
closed = 1;
nodes = (
(309,701,o),
(300,696,o),
(300,670,cs),
(300,613,o),
(294,600,o),
(336,600,cs),
(559,600,l),
(584,599,o),
(602,603,o),
(601,567,cs),
(600,505,o),
(592,501,o),
(632,500,cs),
(697,499,o),
(700,496,o),
(700,534,cs),
(700,601,o),
(698,600,o),
(665,600,cs),
(631,600,o),
(598,594,o),
(600,635,cs),
(603,694,o),
(596,700,o),
(555,700,cs),
(353,700,l)
);
},
{
closed = 1;
nodes = (
(600,200,o),
(600,200,o),
(600,166,cs),
(599,98,o),
(596,100,o),
(647,100,cs),
(695,100,o),
(700,89,o),
(700,166,cs),
(700,179,o),
(700,200,o),
(681,200,c),
(637,200,l)
);
}
);
width = 800;
},
{
layerId = m002;
shapes = (
{
closed = 1;
nodes = (
(100,600,l),
(100,600,o),
(100,595,o),
(100,553,cs),
(100,100,ls),
(100,100,o),
(108,100,o),
(131,100,cs),
(283,100,ls),
(317,100,o),
(300,133,o),
(300,67,cs),
(300,15,o),
(300,0,o),
(300,0,c),
(600,0,l),
(600,0,o),
(600,9,o),
(600,9,cs),
(600,58,o),
(603,6,o),
(584,6,cs),
(371,5,l),
(308,19,o),
(319,89,o),
(308,129,cs),
(297,169,o),
(267,200,o),
(267,200,cs),
(247,131,o),
(200,76,o),
(200,129,cs),
(200,464,l),
(200,464,o),
(74,596,o),
(114,596,cs),
(144,596,o),
(200,522,o),
(200,564,cs),
(200,606,o),
(314,599,o),
(292,600,c),
(230,600,l)
);
},
{
closed = 1;
nodes = (
(309,700,o),
(300,700,o),
(300,700,cs),
(300,643,o),
(300,600,o),
(300,600,cs),
(610,601,l),
(661,600,o),
(600,611,o),
(600,567,cs),
(600,529,o),
(600,500,o),
(600,500,cs),
(666,500,o),
(700,500,o),
(700,500,cs),
(700,567,o),
(700,600,o),
(700,600,cs),
(699,600,o),
(600,596,o),
(600,635,cs),
(600,659,o),
(600,700,o),
(600,700,cs),
(353,700,l)
);
},
{
closed = 1;
nodes = (
(600,200,o),
(600,200,o),
(600,166,cs),
(600,100,o),
(600,100,o),
(600,100,cs),
(648,100,o),
(700,100,o),
(700,100,cs),
(700,113,o),
(700,200,o),
(700,200,c),
(600,200,l)
);
}
);
width = 800;
}
);
unicode = 67;
},
{
glyphname = D;
lastChange = "2024-05-10 01:46:43 +0000";
layers = (
{
layerId = m01;
shapes = (
{
closed = 1;
nodes = (
(212,700,o),
(200,702,o),
(200,668,cs),
(200,634,o),
(196,606,o),
(154,600,cs),
(140,598,o),
(100,607,o),
(100,568,cs),
(100,154,ls),
(100,116,o),
(99,100,o),
(134,100,cs),
(169,100,o),
(199,103,o),
(200,66,cs),
(201,29,o),
(199,0,o),
(240,0,cs),
(461,0,ls),
(492,0,o),
(500,3,o),
(500,33,cs),
(500,63,o),
(495,101,o),
(523,100,cs),
(570,99,o),
(601,93,o),
(600,138,cs),
(599,189,o),
(606,200,o),
(640,200,cs),
(674,200,o),
(699,196,o),
(700,232,c),
(700,460,l),
(700,487,o),
(690,500,o),
(661,500,cs),
(632,500,o),
(600,503,o),
(600,544,cs),
(600,586,o),
(604,600,o),
(570,600,cs),
(536,600,o),
(500,593,o),
(500,634,cs),
(500,675,o),
(499,700,o),
(466,700,cs),
(243,699,l)
);
},
{
closed = 1;
nodes = (
(464,600,ls),
(501,600,o),
(498,579,o),
(499,535,cs),
(500,497,o),
(541,499,o),
(566,500,cs),
(594,501,o),
(600,494,o),
(600,469,cs),
(600,228,ls),
(600,197,o),
(558,199,o),
(527,200,cs),
(496,201,o),
(500,185,o),
(500,147,cs),
(500,109,o),
(490,101,o),
(451,100,cs),
(240,100,l),
(200,102,o),
(200,119,o),
(200,161,cs),
(200,566,ls),
(200,599,o),
(216,601,o),
(251,601,c)
);
}
);
width = 800;
},
{
layerId = m002;
shapes = (
{
closed = 1;
nodes = (
(200,700,o),
(200,696,o),
(200,662,cs),
(200,628,o),
(151,601,o),
(100,600,cs),
(100,600,o),
(100,607,o),
(100,568,cs),
(100,100,ls),
(100,100,o),
(141,100,o),
(176,100,cs),
(200,100,o),
(202,110,o),
(200,0,cs),
(200,0,o),
(199,0,o),
(240,0,cs),
(500,0,ls),
(503,0,o),
(503,3,o),
(503,33,cs),
(503,63,o),
(505,113,o),
(505,111,cs),
(504,96,o),
(602,100,o),
(602,100,cs),
(602,152,o),
(588,200,o),
(700,200,cs),
(700,200,o),
(699,196,o),
(700,232,c),
(700,500,l),
(700,500,o),
(690,500,o),
(661,500,cs),
(632,500,o),
(598,503,o),
(588,505,cs),
(547,513,o),
(523,528,o),
(518,536,cs),
(502,562,o),
(502,579,o),
(502,599,cs),
(502,640,o),
(500,700,o),
(500,700,cs),
(200,700,l)
);
},
{
closed = 1;
nodes = (
(495,693,ls),
(495,693,o),
(500,544,o),
(500,500,cs),
(500,500,o),
(607,498,o),
(632,498,cs),
(660,498,o),
(600,494,o),
(600,469,cs),
(598,111,ls),
(598,80,o),
(500,169,o),
(500,200,cs),
(500,200,o),
(500,188,o),
(500,188,cs),
(500,152,o),
(501,9,o),
(493,9,cs),
(210,9,l),
(210,9,o),
(207,40,o),
(207,82,cs),
(208,611,ls),
(208,639,o),
(209,651,o),
(206,693,c)
);
}
);
width = 800;
}
);
unicode = 68;
},
{
glyphname = E;
lastChange = "2024-05-10 01:47:33 +0000";
layers = (
{
layerId = m01;
shapes = (
{
closed = 1;
nodes = (
(220,701,o),
(200,700,o),
(200,668,cs),
(200,628,o),
(193,600,o),
(158,600,cs),
(119,600,o),
(100,598,o),
(100,564,cs),
(100,440,ls),
(100,413,o),
(111,399,o),
(137,400,cs),
(163,401,o),
(200,393,o),
(200,368,cs),
(199,316,o),
(203,300,o),
(154,300,cs),
(105,300,o),
(100,291,o),
(100,253,cs),
(101,159,l),
(100,49,l),
(101,11,o),
(102,4,o),
(148,0,c),
(549,0,l),
(596,1,o),
(600,4,o),
(600,44,cs),
(600,97,o),
(598,100,o),
(548,100,cs),
(277,100,l),
(222,102,o),
(200,99,o),
(200,158,c),
(200,267,l),
(200,279,o),
(213,300,o),
(236,300,cs),
(439,300,ls),
(468,300,o),
(500,300,o),
(500,331,cs),
(500,365,o),
(503,400,o),
(481,400,c),
(257,400,ls),
(240,400,o),
(200,397,o),
(200,432,cs),
(200,557,l),
(199,577,o),
(206,600,o),
(233,600,cs),
(537,600,ls),
(561,600,o),
(600,601,o),
(600,628,cs),
(600,647,o),
(604,700,o),
(571,700,c),
(262,700,l)
);
}
);
width = 800;
},
{
layerId = m002;
shapes = (
{
closed = 1;
nodes = (
(200,700,o),
(202,632,o),
(200,600,cs),
(191,478,o),
(234,585,o),
(100,600,cs),
(100,600,o),
(100,598,o),
(100,564,cs),
(100,400,ls),
(100,400,o),
(179,399,o),
(205,400,cs),
(235,401,o),
(227,401,o),
(227,401,cs),
(227,317,o),
(226,208,o),
(226,208,cs),
(131,172,o),
(100,299,o),
(100,299,cs),
(101,159,l),
(100,0,l),
(100,0,o),
(102,0,o),
(148,0,c),
(600,0,l),
(600,0,o),
(600,14,o),
(600,54,cs),
(600,107,o),
(595,6,o),
(590,6,cs),
(203,8,l),
(194,11,o),
(234,-29,o),
(234,58,c),
(234,100,l),
(234,147,o),
(234,159,o),
(234,202,cs),
(234,423,ls),
(234,423,o),
(500,423,o),
(500,423,cs),
(500,423,o),
(500,426,o),
(500,426,c),
(215,426,ls),
(201,426,o),
(199,392,o),
(200,424,cs),
(203,557,l),
(202,577,o),
(205,697,o),
(208,697,cs),
(574,697,ls),
(599,697,o),
(600,574,o),
(600,601,cs),
(600,620,o),
(600,700,o),
(600,700,c),
(200,700,l)
);
}
);
width = 800;
}
);
unicode = 69;
},
{
glyphname = F;
lastChange = "2024-05-10 01:47:54 +0000";
layers = (
{
layerId = m01;
shapes = (
{
closed = 1;
nodes = (
(233,700,o),
(200,698,o),
(200,663,cs),
(200,636,o),
(201,599,o),
(172,600,cs),
(130,601,o),
(100,598,o),
(100,573,cs),
(100,458,l),
(99,416,o),
(109,400,o),
(145,400,cs),
(181,400,o),
(200,391,o),
(200,367,cs),
(200,329,o),
(196,300,o),
(157,300,cs),
(116,300,o),
(100,292,o),
(100,261,cs),
(100,44,ls),
(100,15,o),
(102,-1,o),
(130,0,cs),
(165,1,o),
(202,-7,o),
(200,30,c),
(200,242,l),
(200,274,o),
(204,300,o),
(234,300,cs),
(555,300,ls),
(585,300,o),
(601,298,o),
(600,354,cs),
(599,400,o),
(587,400,o),
(555,400,cs),
(246,400,ls),
(228,400,o),
(200,412,o),
(200,452,c),
(200,558,l),
(200,584,o),
(210,600,o),
(229,600,cs),
(554,600,ls),
(576,600,o),
(600,596,o),
(600,636,cs),
(600,669,o),
(602,700,o),
(574,700,c),
(265,700,l)
);
}
);
width = 800;
},
{
layerId = m002;
shapes = (
{
closed = 1;
nodes = (
(200,700,o),
(202,698,o),
(200,663,cs),
(196,590,o),
(129,600,o),
(100,600,cs),
(100,600,o),
(100,598,o),
(100,573,cs),
(100,400,l),
(100,400,o),
(116,395,o),
(152,395,cs),
(204,395,o),
(211,413,o),
(179,373,cs),
(172,365,o),
(100,300,o),
(100,300,cs),
(100,300,o),
(100,292,o),
(100,261,cs),
(100,0,ls),
(100,0,o),
(102,0,o),
(130,0,cs),
(165,0,o),
(200,0,o),
(200,0,c),
(200,242,l),
(200,274,o),
(191,388,o),
(236,388,cs),
(570,388,ls),
(588,388,o),
(600,300,o),
(600,300,cs),
(600,320,o),
(600,400,o),
(600,400,cs),
(246,400,ls),
(228,400,o),
(200,412,o),
(200,452,c),
(200,551,l),
(200,577,o),
(206,690,o),
(206,690,cs),
(578,690,ls),
(595,690,o),
(600,568,o),
(600,608,cs),
(600,641,o),
(600,700,o),
(600,700,c),
(200,700,l)
);
}
);
width = 800;
}
);
unicode = 70;
},
{
glyphname = G;
lastChange = "2024-05-10 01:39:49 +0000";
layers = (
{
layerId = m01;
shapes = (
{
closed = 1;
nodes = (
(240,700,o),
(202,700,o),
(200,669,cs),
(198,644,o),
(204,604,o),
(166,600,cs),
(139,597,o),
(100,600,o),
(100,564,cs),
(100,169,ls),
(100,130,o),
(114,100,o),
(145,100,cs),
(251,100,ls),
(280,100,o),
(301,93,o),
(301,54,cs),
(301,-1,o),
(307,0,o),
(346,0,c),
(547,0,l),
(579,0,o),
(600,8,o),
(600,47,cs),
(600,81,o),
(607,95,o),
(628,100,cs),
(646,104,o),
(700,86,o),
(700,140,cs),
(700,264,ls),
(700,289,o),
(689,299,o),
(654,300,cs),
(619,301,o),
(600,319,o),
(600,349,cs),
(600,387,o),
(584,400,o),
(533,400,cs),
(365,400,ls),
(339,400,o),
(300,403,o),
(300,367,cs),
(300,309,o),
(297,300,o),
(344,300,cs),
(535,300,ls),
(562,300,o),
(600,305,o),
(600,259,cs),
(600,167,ls),
(600,132,o),
(606,100,o),
(550,100,cs),
(359,100,l),
(324,102,o),
(299,106,o),
(300,144,cs),
(301,183,o),
(298,200,o),
(257,200,cs),
(225,200,o),
(200,211,o),
(200,253,cs),
(199,553,l),
(200,576,o),
(209,600,o),
(233,600,cs),
(534,600,ls),
(570,600,o),
(601,589,o),
(601,530,cs),
(601,495,o),
(613,500,o),
(652,500,cs),
(692,500,o),
(700,498,o),
(700,530,cs),
(700,572,o),
(705,700,o),
(650,700,c),
(279,700,l)
);
}
);
width = 800;
},
{
layerId = m002;
shapes = (
{
closed = 1;
nodes = (
(100,700,o),
(100,676,o),
(100,658,cs),
(100,614,o),
(1,600,o),
(1,600,cs),
(1,600,o),
(1,600,o),
(1,564,cs),
(0,100,ls),
(0,100,o),
(15,100,o),
(46,100,cs),
(152,100,ls),
(152,100,o),
(198,233,o),
(199,190,cs),
(200,134,o),
(200,0,o),
(200,0,c),
(502,0,l),
(502,0,o),
(503,76,o),
(503,115,cs),
(503,149,o),
(517,100,o),
(535,100,cs),
(553,100,o),
(600,100,o),
(600,100,cs),
(600,300,ls),
(600,300,o),
(588,300,o),
(588,300,cs),
(547,303,o),
(501,312,o),
(501,400,cs),
(501,400,o),
(485,400,o),
(434,400,cs),
(200,400,ls),
(200,400,o),
(200,336,o),
(200,300,cs),
(200,300,o),
(246,300,o),
(293,300,cs),
(567,300,ls),
(594,300,o),
(501,299,o),
(501,264,cs),
(501,167,ls),
(501,132,o),
(498,8,o),
(498,8,cs),
(215,8,l),
(204,8,o),
(209,-7,o),
(208,11,cs),
(206,50,o),
(200,200,o),
(200,200,cs),
(168,200,o),
(102,68,o),
(102,110,cs),
(105,695,l),
(105,695,o),
(594,694,o),
(594,694,cs),
(525,513,ls),
(503,454,o),
(500,646,o),
(500,587,cs),
(500,552,o),
(500,500,o),
(500,500,cs),
(540,500,o),
(600,500,o),
(600,500,cs),
(600,542,o),
(600,700,o),
(600,700,c),
(100,700,l)
);
}
);
width = 600;
}
);
unicode = 71;
},
{
glyphname = H;
lastChange = "2024-05-10 01:48:19 +0000";
layers = (
{
layerId = m01;
shapes = (
{
closed = 1;
nodes = (
(115,699,o),
(100,703,o),
(100,671,cs),
(100,466,ls),
(100,412,o),
(98,400,o),
(132,400,cs),
(178,400,o),
(200,399,o),
(200,365,cs),
(200,318,o),
(194,300,o),
(158,300,cs),
(118,300,o),
(100,303,o),
(100,271,cs),
(100,46,ls),
(100,3,o),
(102,0,o),
(140,0,cs),
(198,0,o),
(200,3,o),
(200,45,c),
(200,234,l),
(200,274,o),
(216,300,o),
(250,300,cs),
(535,300,l),
(571,301,o),
(598,295,o),
(600,263,c),
(600,35,ls),
(600,0,o),
(608,0,o),
(647,0,cs),
(693,0,o),
(700,0,o),
(700,35,cs),
(700,89,o),
(700,258,o),
(700,270,cs),
(700,287,o),
(693,300,o),
(656,300,cs),
(623,300,o),
(600,299,o),
(600,346,cs),
(600,383,o),
(602,400,o),
(625,400,cs),
(678,400,o),
(700,399,o),
(700,448,cs),
(700,672,ls),
(700,700,o),
(694,700,o),
(645,700,cs),
(611,700,o),
(600,700,o),
(600,672,c),
(600,465,ls),
(600,441,o),
(596,400,o),
(542,400,cs),
(279,400,l),
(219,400,o),
(200,393,o),
(200,466,cs),
(200,649,l),
(199,667,o),
(204,700,o),
(177,700,c),
(138,700,l)
);
}
);
width = 800;
},
{
layerId = m002;
shapes = (
{
closed = 1;
nodes = (
(100,700,o),
(100,703,o),
(100,671,cs),
(100,400,ls),
(100,400,o),
(125,398,o),
(159,400,cs),
(226,404,o),
(199,461,o),
(200,370,cs),
(201,227,o),
(225,300,o),
(168,300,cs),
(128,300,o),
(100,300,o),
(100,300,cs),
(100,0,ls),
(100,0,o),
(102,0,o),
(140,0,cs),
(198,0,o),
(200,0,o),
(200,0,c),
(200,201,l),
(197,268,o),
(244,349,o),
(244,349,cs),
(560,350,l),
(560,350,o),
(601,267,o),
(600,201,c),
(600,0,ls),
(600,0,o),
(608,0,o),
(647,0,cs),
(693,0,o),
(700,0,o),
(700,0,cs),
(700,54,o),
(700,258,o),
(700,270,cs),
(700,287,o),
(693,300,o),
(656,300,cs),
(554,300,o),
(595,275,o),
(600,346,cs),
(605,424,o),
(553,399,o),
(662,400,cs),
(715,400,o),
(700,400,o),
(700,400,cs),
(700,700,ls),
(700,700,o),
(694,700,o),
(645,700,cs),
(611,700,o),
(600,700,o),
(600,700,c),
(600,484,ls),
(600,397,o),
(560,354,o),
(560,354,cs),
(244,353,l),
(244,353,o),
(200,402,o),
(200,484,cs),
(200,649,l),
(199,667,o),
(200,700,o),
(200,700,c),
(100,700,l)
);
}
);
width = 800;
}
);
unicode = 72;
},
{
glyphname = I;
lastChange = "2024-05-09 04:22:20 +0000";
layers = (
{
layerId = m01;
shapes = (
{
closed = 1;
nodes = (
);
},
{
closed = 1;
nodes = (
(308,700,o),
(300,701,o),
(300,669,cs),
(300,433,ls),
(300,404,o),
(301,400,o),
(334,400,cs),
(395,400,o),
(400,399,o),
(400,433,c),
(400,669,l),
(400,700,o),
(392,700,o),
(364,700,c),
(345,700,l)
);
},
{
closed = 1;
nodes = (
(309,300,o),
(300,298,o),
(300,276,cs),
(300,37,ls),
(300,1,o),
(302,0,o),
(327,0,cs),
(352,0,o),
(365,0,o),
(376,0,cs),
(387,0,o),
(400,-4,o),
(400,30,cs),
(400,246,ls),
(400,281,o),
(403,300,o),
(379,300,cs),
(333,300,l)
);
}
);
width = 800;
},
{
layerId = m002;
shapes = (
{
closed = 1;
nodes = (
);
},
{
closed = 1;
nodes = (
(308,700,o),
(300,700,o),
(300,700,cs),
(300,400,ls),
(300,400,o),
(352,348,o),
(352,348,cs),
(352,348,o),
(400,400,o),
(400,400,c),
(400,700,l),
(400,700,o),
(392,700,o),
(364,700,c),
(345,700,l)
);
},
{
closed = 1;
nodes = (
(352,348,o),
(300,300,o),
(300,300,cs),
(300,0,ls),
(300,0,o),
(302,0,o),
(327,0,cs),
(352,0,o),
(365,0,o),
(376,0,cs),
(387,0,o),
(400,0,o),
(400,0,cs),
(400,300,ls),
(400,300,o),
(352,348,o),
(352,348,cs),
(352,348,l)
);
}
);
width = 800;
}
);
unicode = 73;
},
{
glyphname = J;
lastChange = "2024-05-10 01:49:42 +0000";
layers = (
{
layerId = m01;
shapes = (
{
closed = 1;
nodes = (
(219,700,o),
(201,700,o),
(200,674,cs),
(198,603,o),
(205,600,o),
(233,600,c),
(431,600,ls),
(465,600,o),
(500,595,o),
(500,562,cs),
(500,507,o),
(501,500,o),
(538,500,cs),
(576,500,o),
(600,503,o),
(600,457,cs),
(600,171,ls),
(600,130,o),
(591,100,o),
(527,100,cs),
(253,100,l),
(227,103,o),
(200,109,o),
(200,135,cs),
(200,200,o),
(194,200,o),
(151,200,cs),
(104,200,o),
(100,200,o),
(100,144,cs),
(100,94,o),
(113,100,o),
(151,100,cs),
(174,100,o),
(200,83,o),
(200,55,cs),
(200,4,o),
(196,2,o),
(239,0,c),
(554,0,l),
(577,-1,o),
(600,3,o),
(600,39,cs),
(600,75,o),
(611,100,o),
(638,100,cs),
(678,100,o),
(700,99,o),
(700,142,c),
(700,462,l),
(700,500,o),
(683,500,o),
(649,500,cs),
(620,500,o),
(600,498,o),
(600,552,cs),
(600,603,o),
(607,600,o),
(640,600,cs),
(688,600,o),
(700,600,o),
(700,643,cs),
(700,703,o),
(693,700,o),
(642,700,cs),
(621,700,o),
(599,704,o),
(600,675,cs),
(602,606,o),
(602,598,o),
(556,600,cs),
(522,601,o),
(500,595,o),
(500,631,cs),
(500,670,o),
(507,702,o),
(472,701,cs),
(261,700,l)
);
}
);
width = 820;
},
{
layerId = m002;
shapes = (
{
closed = 1;
nodes = (
(200,700,o),
(199,621,o),
(200,600,cs),
(200,600,o),
(242,600,o),
(242,600,c),
(294,600,ls),
(430,600,o),
(500,600,o),
(500,600,cs),
(500,600,o),
(500,500,o),
(500,500,cs),
(500,500,o),
(599,636,o),
(599,590,cs),
(600,99,ls),
(600,-35,o),
(569,15,o),
(566,15,cs),
(206,16,l),
(206,19,o),
(204,174,o),
(204,200,cs),
(204,200,o),
(100,200,o),
(100,200,cs),
(100,200,o),
(100,156,o),
(100,100,cs),
(100,100,o),
(113,100,o),
(113,100,cs),
(113,100,o),
(197,213,o),
(197,185,cs),
(197,134,o),
(200,0,o),
(200,0,c),
(604,0,l),
(604,0,o),
(604,3,o),
(604,39,cs),
(604,75,o),
(611,100,o),
(638,100,cs),
(678,100,o),
(700,100,o),
(700,100,c),
(700,500,l),
(700,500,o),
(655,500,o),
(621,500,cs),
(592,500,o),
(621,642,o),
(657,680,cs),
(681,706,o),
(689,692,o),
(700,600,cs),
(700,600,o),
(700,700,o),
(700,700,cs),
(700,700,o),
(693,700,o),
(642,700,cs),
(621,700,o),
(600,700,o),
(600,700,cs),
(631,638,o),
(602,602,o),
(560,605,cs),
(447,614,o),
(500,593,o),
(500,637,cs),
(500,676,o),
(500,700,o),
(500,700,cs),
(200,700,l)
);
}
);
width = 820;
}
);
unicode = 74;
},
{
glyphname = K;
lastChange = "2024-05-10 01:51:32 +0000";
layers = (
{
layerId = m01;
shapes = (
{
closed = 1;
nodes = (
(212,700,o),
(200,700,o),
(200,668,cs),
(200,455,ls),
(200,427,o),
(202,400,o),
(228,400,cs),
(254,400,o),
(299,398,o),
(300,358,cs),
(301,306,o),
(300,300,o),
(256,300,cs),
(211,300,o),
(200,294,o),
(200,252,cs),
(200,72,l),
(199,3,o),
(200,0,o),
(226,0,cs),
(297,0,o),
(300,-4,o),
(300,39,cs),
(300,230,ls),
(300,243,o),
(298,301,o),
(336,300,cs),
(367,299,o),
(400,305,o),
(400,266,cs),
(400,225,o),
(399,200,o),
(419,200,cs),
(439,200,o),
(500,198,o),
(500,169,cs),
(499,100,o),
(499,100,o),
(533,100,cs),
(565,100,o),
(600,102,o),
(600,56,cs),
(600,-2,o),
(601,-1,o),
(647,0,cs),
(698,1,o),
(700,-1,o),
(700,33,cs),
(700,85,o),
(697,100,o),
(673,100,cs),
(640,100,o),
(600,99,o),
(600,128,cs),
(600,167,o),
(607,200,o),
(568,200,cs),
(534,200,o),
(498,193,o),
(499,239,cs),
(500,296,o),
(488,301,o),
(447,300,cs),
(412,299,o),
(399,306,o),
(399,343,cs),
(399,380,o),
(402,401,o),
(443,400,cs),
(484,399,o),
(501,400,o),
(500,439,cs),
(499,482,o),
(498,501,o),
(526,500,cs),
(565,499,o),
(599,499,o),
(600,528,cs),
(601,562,o),
(595,599,o),
(621,600,c),
(672,600,l),
(686,601,o),
(700,605,o),
(700,636,cs),
(700,670,o),
(704,700,o),
(673,700,cs),
(627,700,o),
(601,704,o),
(600,679,cs),
(599,643,ls),
(598,623,o),
(584,600,o),
(547,600,cs),
(510,600,o),
(500,592,o),
(500,560,cs),
(500,528,o),
(501,500,o),
(458,500,cs),
(407,500,o),
(400,499,o),
(400,450,cs),
(400,399,o),
(400,400,o),
(344,400,cs),
(300,400,o),
(300,400,o),
(301,451,c),
(300,642,l),
(301,679,o),
(297,700,o),
(280,700,c),
(245,700,l)
);
}
);
width = 1000;
},
{
layerId = m002;
shapes = (
{
closed = 1;
nodes = (
(200,700,o),
(200,700,o),
(200,668,cs),
(200,397,ls),
(200,397,o),
(200,397,o),
(226,397,cs),
(275,397,o),
(300,397,o),
(300,397,c),
(298,299,o),
(200,300,o),
(200,300,cs),
(200,300,o),
(200,294,o),
(200,252,cs),
(200,0,l),
(200,0,o),
(200,0,o),
(226,0,cs),
(297,0,o),
(300,0,o),
(300,0,cs),
(300,230,ls),
(300,243,o),
(300,398,o),
(324,397,cs),
(332,397,o),
(381,396,o),
(381,396,cs),
(408,361,o),
(400,200,o),
(400,200,cs),
(400,200,o),
(494,319,o),
(495,290,cs),
(498,222,o),
(499,100,o),
(499,100,cs),
(531,100,o),
(600,100,o),
(600,100,cs),
(600,42,o),
(600,0,o),
(600,0,cs),
(600,0,o),
(700,0,o),
(700,0,cs),
(700,0,o),
(700,100,o),
(700,100,cs),
(667,100,o),
(600,99,o),
(600,128,cs),
(600,158,o),
(600,200,o),
(600,200,cs),
(600,200,o),
(501,16,o),
(504,158,cs),
(505,215,o),
(500,300,o),
(500,300,cs),
(400,292,o),
(400,352,o),
(400,388,cs),
(400,403,o),
(347,398,o),
(445,398,cs),
(486,398,o),
(504,398,o),
(504,398,cs),
(504,442,o),
(496,598,o),
(524,597,cs),
(563,596,o),
(600,500,o),
(600,500,cs),
(600,531,o),
(596,696,o),
(622,697,c),
(690,600,l),
(690,600,o),
(700,600,o),
(700,600,cs),
(700,600,o),
(700,700,o),
(700,700,cs),
(700,700,o),
(600,700,o),
(600,700,cs),
(598,600,ls),
(598,600,o),
(584,600,o),
(547,600,cs),
(510,600,o),
(500,600,o),
(500,600,cs),
(500,511,o),
(508,263,o),
(400,500,cs),
(400,500,o),
(400,410,o),
(400,410,cs),
(434,401,o),
(301,402,o),
(301,402,cs),
(301,402,o),
(301,412,o),
(301,412,c),
(300,642,l),
(301,679,o),
(300,700,o),
(300,700,c),
(200,700,l)
);
}
);
width = 1000;
}
);
unicode = 75;
},
{
glyphname = L;
lastChange = "2024-05-10 01:51:54 +0000";
layers = (
{
layerId = m01;
shapes = (
{
closed = 1;
nodes = (
(107,699,o),
(100,704,o),
(100,666,cs),
(100,164,ls),
(100,121,o),
(101,100,o),
(134,100,cs),
(167,100,o),
(200,100,o),
(200,66,cs),
(200,13,o),
(198,0,o),
(230,0,cs),
(262,0,o),
(634,0,o),
(654,0,cs),
(691,0,o),
(700,-4,o),
(700,41,cs),
(700,86,o),
(706,100,o),
(663,100,cs),
(258,100,ls),
(212,100,o),
(200,103,o),
(200,153,cs),
(200,638,ls),
(200,700,o),
(198,700,o),
(170,700,cs),
(131,700,l)
);
}
);
width = 800;
},
{
layerId = m002;
shapes = (
{
closed = 1;
nodes = (
(100,700,o),
(100,704,o),
(100,666,cs),
(100,93,ls),
(100,93,o),
(164,93,o),
(197,93,cs),
(227,93,o),
(200,102,o),
(200,70,cs),
(200,68,o),
(200,0,o),
(200,0,cs),
(232,0,o),
(680,0,o),
(700,0,cs),
(700,0,o),
(700,-4,o),
(700,41,cs),
(700,86,o),
(700,100,o),
(700,100,cs),
(229,100,ls),
(127,100,o),
(200,101,o),
(200,111,cs),
(200,638,ls),
(200,700,o),
(200,700,o),
(200,700,cs),
(100,700,l)
);
}
);
width = 800;
}
);
unicode = 76;
},
{
glyphname = M;
lastChange = "2024-05-10 00:41:47 +0000";
layers = (
{
layerId = m01;
shapes = (
{
closed = 1;
nodes = (
(105,600,o),
(100,604,o),
(100,566,cs),
(100,39,ls),
(100,-3,o),
(104,0,o),
(138,0,cs),
(199,0,o),
(201,-1,o),
(200,43,c),
(200,543,l),
(200,577,o),
(204,600,o),
(234,600,cs),
(279,600,o),
(300,604,o),
(300,564,cs),
(300,505,o),
(296,500,o),
(332,500,cs),
(371,500,o),
(400,491,o),
(400,459,cs),
(400,355,ls),
(400,303,o),
(401,300,o),
(435,300,cs),
(489,300,o),
(500,297,o),
(500,335,c),
(500,460,ls),
(500,494,o),
(510,500,o),
(532,500,cs),
(553,500,o),
(600,496,o),
(600,533,cs),
(600,580,o),
(598,600,o),
(622,601,cs),
(646,602,o),
(700,609,o),
(700,560,cs),
(700,41,ls),
(700,0,o),
(704,0,o),
(750,0,cs),
(793,0,o),
(800,0,o),
(800,41,c),
(800,568,l),
(800,591,o),
(793,600,o),
(770,600,cs),
(720,599,o),
(700,609,o),
(700,645,cs),
(700,695,o),
(701,700,o),
(661,700,cs),
(617,700,o),
(600,704,o),
(600,678,cs),
(600,638,ls),
(600,622,o),
(601,601,o),
(574,600,cs),
(564,600,o),
(556,600,o),
(548,600,cs),
(518,600,o),
(500,599,o),
(500,575,cs),
(500,541,o),
(505,499,o),
(478,500,cs),
(434,501,o),
(400,494,o),
(400,531,cs),
(400,593,o),
(406,600,o),
(368,600,cs),
(362,600,o),
(355,600,o),
(350,600,cs),
(320,601,o),
(300,606,o),
(300,643,cs),
(300,700,o),
(297,701,o),
(250,700,cs),
(206,699,o),
(200,700,o),
(200,672,cs),
(200,630,o),
(201,600,o),
(179,600,cs),
(148,600,l)
);
}
);
width = 800;
},
{
layerId = m002;
shapes = (
{
closed = 1;
nodes = (
(100,600,o),
(100,604,o),
(100,566,cs),
(100,0,ls),
(100,0,o),
(104,0,o),
(138,0,cs),
(199,0,o),
(200,0,o),
(200,0,c),
(200,594,l),
(200,599,o),
(174,600,o),
(209,600,cs),
(252,600,o),
(297,693,o),
(297,693,cs),
(297,646,o),
(298,568,o),
(298,500,cs),
(298,500,o),
(401,500,o),
(401,500,cs),
(400,300,ls),
(400,300,o),
(401,300,o),
(435,300,cs),
(489,300,o),
(500,300,o),
(500,300,c),
(501,500,ls),
(501,500,o),
(581,500,o),
(603,500,cs),
(603,500,o),
(603,733,o),
(603,690,cs),
(603,627,o),
(689,600,o),
(689,600,cs),
(750,597,o),
(700,606,o),
(700,585,cs),
(700,0,ls),
(700,0,o),
(704,0,o),
(750,0,cs),
(793,0,o),
(800,0,o),
(800,0,c),
(800,600,l),
(800,600,o),
(766,600,o),
(743,600,cs),
(693,599,o),
(701,606,o),
(700,700,cs),
(700,700,o),
(700,700,o),
(661,700,cs),
(617,700,o),
(600,700,o),
(600,700,cs),
(600,638,ls),
(600,622,o),
(600,504,o),
(600,504,cs),
(586,504,o),
(499,503,o),
(499,503,cs),
(499,531,o),
(500,600,o),
(500,600,cs),
(500,600,o),
(450,500,o),
(450,500,cs),
(450,500,o),
(401,600,o),
(401,600,cs),
(401,578,o),
(401,504,o),
(401,504,cs),
(401,504,o),
(301,505,o),
(301,505,cs),
(301,505,o),
(300,656,o),
(300,700,cs),
(300,700,o),
(297,700,o),
(250,700,cs),
(206,700,o),
(200,700,o),
(200,700,cs),
(200,658,o),
(209,600,o),
(187,600,cs),
(100,600,l)
);
}
);
width = 800;
}
);
unicode = 77;
},
{
glyphname = N;
lastChange = "2024-05-10 01:52:51 +0000";
layers = (
{
layerId = m01;
shapes = (
{
closed = 1;
nodes = (
(111,700,o),
(100,700,o),
(100,680,cs),
(101,634,o),
(95,600,o),
(122,600,cs),
(147,600,o),
(199,602,o),
(200,565,cs),
(201,503,o),
(195,500,o),
(152,500,cs),
(114,500,o),
(100,504,o),
(100,460,cs),
(100,62,ls),
(100,6,o),
(100,0,o),
(133,0,cs),
(193,0,o),
(200,-4,o),
(200,34,c),
(200,371,ls),
(200,476,o),
(200,500,o),
(251,500,cs),
(287,500,o),
(300,493,o),
(300,454,cs),
(300,394,o),
(305,400,o),
(346,400,cs),
(372,400,o),
(400,398,o),
(400,368,cs),
(400,309,o),
(400,300,o),
(431,300,cs),
(464,300,o),
(500,301,o),
(500,265,cs),
(500,75,ls),
(500,4,o),
(501,0,o),
(536,0,cs),
(597,0,o),
(600,0,o),
(600,40,c),
(600,261,ls),
(600,292,o),
(594,300,o),
(558,300,cs),
(522,300,o),
(500,303,o),
(500,346,cs),
(500,383,o),
(502,400,o),
(529,400,cs),
(582,400,o),
(600,400,o),
(600,436,cs),
(600,665,ls),
(600,689,o),
(595,700,o),
(559,700,cs),
(512,700,o),
(500,704,o),
(500,654,cs),
(500,464,ls),
(500,424,o),
(496,400,o),
(469,400,cs),
(422,400,o),
(400,400,o),
(400,438,cs),
(400,500,o),
(391,500,o),
(350,500,cs),
(313,500,o),
(300,505,o),
(300,544,cs),
(300,595,o),
(297,600,o),
(250,600,cs),
(210,600,o),
(200,612,o),
(200,651,cs),
(200,690,o),
(204,700,o),
(170,700,c),
(149,700,l)
);
}
);
width = 800;
},
{
layerId = m002;
shapes = (
{
closed = 1;
nodes = (
(100,700,o),
(100,620,o),
(100,600,cs),
(100,600,o),
(125,599,o),
(152,600,cs),
(207,602,o),
(199,667,o),
(200,630,cs),
(201,567,o),
(198,500,o),
(198,500,cs),
(93,500,o),
(101,500,o),
(101,500,cs),
(100,0,ls),
(100,0,o),
(100,0,o),
(133,0,cs),
(193,0,o),
(200,0,o),
(200,0,c),
(202,480,ls),
(202,578,o),
(197,500,o),
(221,500,cs),
(257,500,o),
(296,500,o),
(296,500,cs),
(296,440,o),
(297,400,o),
(297,400,cs),
(297,400,o),
(400,400,o),
(400,400,cs),
(400,400,o),
(400,300,o),
(400,300,cs),
(409,394,o),
(497,421,o),
(497,385,cs),
(500,0,ls),
(500,0,o),
(501,0,o),
(536,0,cs),
(597,0,o),
(600,0,o),
(600,0,c),
(600,300,ls),
(600,300,o),
(544,300,o),
(508,300,cs),
(495,300,o),
(505,269,o),
(505,376,cs),
(505,401,o),
(468,400,o),
(538,400,cs),
(591,400,o),
(600,400,o),
(600,400,cs),
(600,700,ls),
(600,700,o),
(595,700,o),
(559,700,cs),
(512,700,o),
(500,700,o),
(500,700,cs),
(498,404,ls),
(498,404,o),
(400,404,o),
(400,404,cs),
(400,404,o),
(400,404,o),
(400,416,cs),
(400,416,o),
(368,407,o),
(368,407,cs),
(304,392,o),
(300,425,o),
(300,500,cs),
(300,550,o),
(300,565,o),
(300,600,cs),
(300,600,o),
(204,536,o),
(204,536,cs),
(204,575,o),
(205,700,o),
(205,700,c),
(100,700,l)
);
}
);
width = 800;
}
);
unicode = 78;
},
{
glyphname = O;
lastChange = "2024-05-10 01:53:53 +0000";
layers = (
{
layerId = m01;
shapes = (
{
closed = 1;
nodes = (
(216,701,o),
(200,700,o),
(200,673,cs),
(200,646,o),
(205,599,o),
(164,600,cs),
(123,601,o),
(100,604,o),
(100,576,cs),
(100,544,o),
(106,501,o),
(67,500,cs),
(28,499,o),
(0,506,o),
(0,466,cs),
(0,251,ls),
(0,202,o),
(5,200,o),
(35,200,cs),
(65,200,o),
(100,204,o),
(100,178,cs),
(100,133,ls),
(100,102,o),
(105,100,o),
(135,100,cs),
(165,100,o),
(200,98,o),
(200,64,cs),
(200,12,o),
(198,-2,o),
(240,0,c),
(466,0,l),
(496,0,o),
(501,4,o),
(500,34,cs),
(499,89,o),
(509,100,o),
(531,100,cs),
(546,100,o),
(552,100,o),
(582,100,cs),
(604,100,o),
(601,131,o),
(600,155,cs),
(599,195,o),
(605,200,o),
(626,200,cs),
(674,200,o),
(700,199,o),
(700,226,cs),
(700,466,l),
(700,491,o),
(695,500,o),
(668,500,cs),
(632,500,o),
(599,498,o),
(599,533,cs),
(599,568,o),
(605,601,o),
(571,601,cs),
(535,601,o),
(503,594,o),
(501,635,cs),
(499,676,o),
(501,700,o),
(462,700,cs),
(251,700,l)
);
},
{
closed = 1;
nodes = (
(466,600,ls),
(506,600,o),
(499,564,o),
(500,530,cs),
(501,495,o),
(522,500,o),
(551,500,cs),
(580,500,o),
(600,486,o),
(600,457,cs),
(600,242,ls),
(600,203,o),
(562,200,o),
(528,200,cs),
(499,200,o),
(500,187,o),
(500,135,cs),
(500,108,o),
(478,100,o),
(441,100,cs),
(225,100,ls),
(199,100,o),
(200,118,o),
(200,132,c),
(200,175,l),
(200,198,o),
(187,200,o),
(170,200,cs),
(118,201,ls),
(97,201,o),
(100,226,o),
(100,266,cs),
(100,478,l),
(101,501,o),
(150,499,o),
(174,500,cs),
(198,501,o),
(200,508,o),
(200,523,cs),
(200,578,ls),
(200,604,o),
(215,599,o),
(276,599,c)
);
}
);
width = 800;
},
{
layerId = m002;
shapes = (
{
closed = 1;
nodes = (
(200,700,o),
(200,635,o),
(200,608,cs),
(200,581,o),
(215,599,o),
(174,600,cs),
(133,601,o),
(100,600,o),
(100,600,cs),
(100,568,o),
(85,500,o),
(0,500,cs),
(0,500,o),
(0,506,o),
(0,466,cs),
(0,200,ls),
(0,200,o),
(49,200,o),
(79,200,cs),
(109,200,o),
(99,223,o),
(99,197,cs),
(100,98,ls),
(100,98,o),
(170,98,o),
(200,98,cs),
(236,98,o),
(200,101,o),
(200,80,cs),
(200,28,o),
(200,0,o),
(200,0,c),
(500,0,l),
(500,0,o),
(500,38,o),
(500,68,cs),
(500,104,o),
(461,98,o),
(483,98,cs),
(498,98,o),
(572,97,o),
(602,97,cs),
(602,97,o),
(601,252,o),
(601,228,cs),
(601,220,o),
(605,200,o),
(626,200,cs),
(674,200,o),
(700,200,o),
(700,200,cs),
(700,500,l),
(700,500,o),
(686,500,o),
(686,500,cs),
(631,500,o),
(603,495,o),
(600,600,cs),
(600,600,o),
(551,604,o),
(517,601,cs),
(504,600,o),
(503,587,o),
(503,587,cs),
(503,628,o),
(500,700,o),
(500,700,cs),
(200,700,l)
);
},
{
closed = 1;
nodes = (
(494,600,ls),
(505,600,o),
(500,500,o),
(500,500,cs),
(500,500,o),
(543,500,o),
(543,500,cs),
(543,500,o),
(595,623,o),
(595,593,cs),
(599,164,ls),
(599,164,o),
(609,202,o),
(500,200,cs),
(500,200,o),
(500,177,o),
(500,125,cs),
(500,98,o),
(550,102,o),
(513,102,cs),
(193,102,ls),
(167,102,o),
(200,100,o),
(200,114,c),
(200,200,l),
(200,200,o),
(187,200,o),
(170,200,cs),
(118,201,ls),
(100,201,o),
(105,169,o),
(105,211,cs),
(105,584,l),
(106,607,o),
(106,617,o),
(174,500,cs),
(174,500,o),
(208,500,o),
(208,500,cs),
(209,594,ls),
(209,610,o),
(181,604,o),
(248,600,c)
);
}
);
width = 800;
}
);
unicode = 79;
},
{
glyphname = P;
lastChange = "2024-05-10 01:41:36 +0000";
layers = (
{
layerId = m01;
shapes = (
{
closed = 1;
nodes = (
(215,701,o),
(200,698,o),
(200,671,cs),
(200,644,o),
(207,599,o),
(168,600,cs),
(123,601,o),
(100,597,o),
(100,560,cs),
(100,449,ls),
(100,422,o),
(107,400,o),
(142,400,cs),
(177,400,o),
(198,394,o),
(199,368,cs),
(200,342,o),
(202,300,o),
(154,300,cs),
(106,300,o),
(100,296,o),
(100,259,cs),
(100,34,ls),
(100,-5,o),
(114,0,o),
(150,0,cs),
(186,0,o),
(200,-6,o),
(200,33,cs),
(200,247,ls),
(200,282,o),
(201,300,o),
(234,300,cs),
(556,300,l),
(590,300,o),
(600,301,o),
(600,339,cs),
(600,380,o),
(597,400,o),
(624,400,cs),
(701,400,o),
(700,400,o),
(700,437,cs),
(700,553,ls),
(700,587,o),
(702,600,o),
(669,600,cs),
(636,600,o),
(600,595,o),
(600,639,cs),
(600,698,o),
(592,700,o),
(533,700,cs),
(258,700,l)
);
},
{
closed = 1;
nodes = (
(540,600,ls),
(583,600,o),
(598,604,o),
(600,566,c),
(600,449,ls),
(600,415,o),
(609,400,o),
(549,400,cs),
(266,400,ls),
(218,400,o),
(199,396,o),
(199,442,cs),
(200,564,ls),
(200,593,o),
(208,600,o),
(219,600,c),
(235,600,l)
);
}
);
width = 800;
},
{
layerId = m002;
shapes = (
{
closed = 1;
nodes = (
(200,700,o),
(198,610,o),
(198,583,cs),
(198,556,o),
(201,600,o),
(180,600,cs),
(135,600,o),
(100,600,o),
(100,600,cs),
(100,398,ls),
(100,398,o),
(167,398,o),
(202,398,cs),
(237,398,o),
(200,400,o),
(200,389,cs),
(202,329,o),
(183,297,o),
(100,300,cs),
(100,300,o),
(100,296,o),
(100,259,cs),
(100,0,ls),
(100,0,o),
(114,0,o),
(150,0,cs),
(186,0,o),
(208,0,o),
(208,0,cs),
(208,388,ls),
(208,392,o),
(205,391,o),
(258,391,cs),
(579,392,l),
(598,392,o),
(600,392,o),
(600,392,cs),
(600,397,o),
(600,399,o),
(600,399,cs),
(678,399,o),
(700,399,o),
(700,399,cs),
(700,600,ls),
(700,600,o),
(652,600,o),
(619,600,cs),
(597,600,o),
(601,534,o),
(601,578,cs),
(601,637,o),
(600,700,o),
(600,700,cs),
(200,700,l)
);
},
{
closed = 1;
nodes = (
(591,695,ls),
(600,695,o),
(597,704,o),
(597,692,c),
(600,412,ls),
(600,397,o),
(641,400,o),
(602,400,cs),
(234,400,ls),
(146,400,o),
(201,394,o),
(201,409,cs),
(201,666,ls),
(201,695,o),
(201,698,o),
(201,698,c),
(202,695,l)
);
}
);
width = 800;
}
);
unicode = 80;
},
{
glyphname = Q;
lastChange = "2024-05-10 01:41:47 +0000";
layers = (
{
layerId = m01;
shapes = (
{
closed = 1;
nodes = (
(215,699,o),
(199,704,o),
(200,663,cs),
(201,622,o),
(187,600,o),
(148,600,cs),
(109,600,o),
(100,593,o),
(100,534,c),
(100,167,ls),
(100,97,o),
(114,100,o),
(152,100,cs),
(190,100,o),
(200,91,o),
(200,61,cs),
(200,9,o),
(201,2,o),
(256,0,c),
(452,0,l),
(492,0,o),
(500,0,o),
(500,39,cs),
(500,76,o),
(499,100,o),
(532,100,cs),
(591,100,o),
(600,107,o),
(600,50,cs),
(600,-4,o),
(607,0,o),
(651,0,cs),
(695,0,o),
(700,-5,o),
(700,47,cs),
(700,85,o),
(706,99,o),
(668,99,cs),
(630,99,o),
(600,94,o),
(600,149,cs),
(600,205,o),
(614,200,o),
(654,200,cs),
(694,200,o),
(700,196,o),
(700,256,cs),
(700,549,ls),
(700,589,o),
(696,600,o),
(649,600,cs),
(615,600,o),
(601,619,o),
(600,648,cs),
(599,690,o),
(602,700,o),
(563,700,c),
(276,700,l)
);
},
{
closed = 1;
nodes = (
(363,601,o),
(478,600,o),
(522,600,cs),
(566,600,o),
(597,599,o),
(600,535,c),
(600,280,ls),
(600,229,o),
(606,203,o),
(557,203,cs),
(508,203,o),
(500,205,o),
(500,171,cs),
(500,137,o),
(500,100,o),
(456,100,cs),
(268,100,l),
(219,103,o),
(200,108,o),
(200,165,c),
(200,449,l),
(200,546,o),
(199,600,o),
(250,600,cs),
(283,600,l)
);
}
);
width = 800;
},
{
layerId = m002;
shapes = (
{
closed = 1;
nodes = (
(200,700,o),
(200,704,o),
(201,663,cs),
(202,622,o),
(154,599,o),
(100,600,cs),
(100,600,o),
(100,593,o),
(100,534,c),
(100,100,ls),
(100,100,o),
(138,100,o),
(176,100,cs),
(203,100,o),
(200,177,o),
(200,147,cs),
(200,95,o),
(200,0,o),
(200,0,c),
(500,0,l),
(500,0,o),
(500,0,o),
(500,39,cs),
(500,76,o),
(537,101,o),
(571,100,cs),
(653,98,o),
(600,104,o),
(600,90,cs),
(600,36,o),
(600,0,o),
(600,0,cs),
(600,0,o),
(700,0,o),
(700,0,cs),
(700,38,o),
(700,103,o),
(700,103,cs),
(521,107,o),
(601,99,o),
(601,121,cs),
(601,177,o),
(602,200,o),
(602,200,cs),
(602,200,o),
(700,200,o),
(700,200,cs),
(700,549,ls),
(700,589,o),
(700,600,o),
(700,600,cs),
(666,600,o),
(601,636,o),
(600,665,cs),
(599,707,o),
(600,700,o),
(600,700,c),
(200,700,l)
);
},
{
closed = 1;
nodes = (
(283,697,o),
(552,697,o),
(597,697,cs),
(597,697,o),
(597,599,o),
(600,535,c),
(598,170,ls),
(598,119,o),
(615,207,o),
(500,200,cs),
(500,200,o),
(496,53,o),
(496,19,cs),
(496,-15,o),
(503,10,o),
(483,10,cs),
(209,10,l),
(201,12,o),
(202,-9,o),
(203,15,c),
(203,461,l),
(203,558,o),
(203,536,o),
(203,584,cs),
(203,696,l)
);
}
);
width = 800;
}
);
unicode = 81;
},
{
glyphname = R;
lastChange = "2024-05-10 01:42:00 +0000";
layers = (
{
layerId = m01;
shapes = (
{
closed = 1;
nodes = (
(210,700,o),
(200,700,o),
(200,661,cs),
(200,629,o),
(204,600,o),
(159,600,cs),
(111,600,o),
(100,598,o),
(100,559,cs),
(100,449,ls),
(100,402,o),
(105,400,o),
(144,400,cs),
(186,400,o),
(200,401,o),
(200,365,cs),
(200,325,o),
(205,300,o),
(159,300,cs),
(113,300,o),
(100,300,o),
(100,269,cs),
(100,34,ls),
(100,0,o),
(117,0,o),
(146,0,cs),
(191,0,o),
(200,0,o),
(200,34,c),
(200,264,l),
(200,286,o),
(207,300,o),
(234,300,cs),
(438,300,ls),
(471,300,o),
(500,289,o),
(500,256,cs),
(500,196,o),
(505,200,o),
(530,200,cs),
(568,200,o),
(600,198,o),
(600,165,cs),
(600,30,ls),
(600,-2,o),
(622,0,o),
(647,0,cs),
(687,0,o),
(700,0,o),
(700,30,cs),
(700,156,ls),
(700,192,o),
(703,201,o),
(668,200,cs),
(617,199,o),
(600,200,o),
(600,257,cs),
(600,300,o),
(607,300,o),
(654,300,cs),
(690,300,o),
(700,300,o),
(700,344,c),
(700,574,l),
(700,601,o),
(690,600,o),
(656,600,cs),
(622,600,o),
(600,607,o),
(600,643,cs),
(600,690,o),
(600,700,o),
(557,700,cs),
(273,700,l)
);
},
{
closed = 1;
nodes = (
(547,600,ls),
(587,600,o),
(601,604,o),
(600,552,c),
(600,442,ls),
(600,417,o),
(602,400,o),
(569,400,cs),
(254,400,ls),
(210,400,o),
(198,409,o),
(199,450,cs),
(200,569,ls),
(200,587,o),
(209,600,o),
(235,600,cs),
(271,600,l)
);
}
);
width = 800;
},
{
layerId = m002;
shapes = (
{
closed = 1;
nodes = (
(200,700,o),
(201,700,o),
(200,661,cs),
(199,596,o),
(177,600,o),
(100,600,cs),
(100,600,o),
(100,598,o),
(100,559,cs),
(100,400,ls),
(100,400,o),
(133,400,o),
(172,400,cs),
(232,400,o),
(200,405,o),
(200,394,cs),
(200,319,o),
(174,298,o),
(100,300,cs),
(100,300,o),
(100,300,o),
(100,269,cs),
(100,0,ls),
(100,0,o),
(117,0,o),
(146,0,cs),
(196,0,o),
(205,0,o),
(205,0,c),
(205,349,l),
(205,371,o),
(204,396,o),
(213,396,cs),
(696,396,ls),
(696,396,o),
(500,300,o),
(500,300,cs),
(500,240,o),
(500,200,o),
(500,200,cs),
(623,198,o),
(600,293,o),
(600,224,cs),
(600,0,ls),
(600,0,o),
(622,0,o),
(647,0,cs),
(687,0,o),
(700,0,o),
(700,0,cs),
(700,200,ls),
(700,200,o),
(653,200,o),
(618,200,cs),
(598,200,o),
(603,142,o),
(603,199,cs),
(603,242,o),
(603,300,o),
(603,300,cs),
(639,300,o),
(700,300,o),
(700,300,c),
(700,574,l),
(700,601,o),
(700,600,o),
(700,600,cs),
(650,598,o),
(600,607,o),
(600,643,cs),
(600,690,o),
(600,700,o),
(600,700,cs),
(200,700,l)
);
},
{
closed = 1;
nodes = (
(594,695,ls),
(594,695,o),
(593,629,o),
(595,576,c),
(600,412,ls),
(600,398,o),
(704,402,o),
(584,402,cs),
(206,403,ls),
(158,403,o),
(205,400,o),
(205,414,cs),
(206,559,ls),
(206,577,o),
(206,572,o),
(206,600,cs),
(206,695,l)
);
}
);
width = 800;
}
);
unicode = 82;
},
{
glyphname = S;
lastChange = "2024-05-10 01:42:11 +0000";
layers = (
{
layerId = m01;
shapes = (
{
closed = 1;
nodes = (
(214,699,o),
(200,704,o),
(200,670,cs),
(200,632,o),
(196,600,o),
(156,600,cs),
(116,600,o),
(100,602,o),
(100,565,cs),
(100,446,ls),
(100,398,o),
(107,400,o),
(145,400,cs),
(183,400,o),
(200,403,o),
(200,361,cs),
(200,319,o),
(203,300,o),
(240,300,cs),
(550,300,l),
(575,299,o),
(600,300,o),
(600,261,cs),
(600,156,ls),
(600,120,o),
(604,100,o),
(556,100,cs),
(243,100,l),
(217,101,o),
(200,104,o),
(200,139,cs),
(200,197,o),
(194,200,o),
(173,200,cs),
(117,200,ls),
(108,200,o),
(100,199,o),
(100,166,cs),
(100,96,o),
(95,100,o),
(145,100,cs),
(183,100,o),
(200,103,o),
(200,65,cs),
(200,-6,o),
(203,0,o),
(244,0,c),
(563,0,l),
(596,0,o),
(601,0,o),
(600,30,cs),
(599,81,o),
(603,100,o),
(633,100,cs),
(693,99,o),
(700,100,o),
(700,142,cs),
(700,267,ls),
(700,299,o),
(691,300,o),
(650,300,cs),
(636,300,o),
(600,297,o),
(600,336,cs),
(600,394,o),
(597,400,o),
(559,400,cs),
(256,400,ls),
(217,400,o),
(200,402,o),
(200,446,c),
(200,567,l),
(200,583,o),
(211,600,o),
(243,600,cs),
(557,601,l),
(586,600,o),
(600,597,o),
(600,541,cs),
(600,500,o),
(608,500,o),
(646,500,cs),
(693,500,o),
(700,500,o),
(700,532,cs),
(700,602,o),
(695,600,o),
(656,600,cs),
(618,600,o),
(600,596,o),
(600,639,cs),
(600,695,o),
(603,700,o),
(559,700,cs),
(263,700,l)
);
}
);
width = 800;
},
{
layerId = m002;
shapes = (
{
closed = 1;
nodes = (
(200,700,o),
(200,629,o),
(200,595,cs),
(200,557,o),
(205,600,o),
(181,600,cs),
(141,600,o),
(100,600,o),
(100,600,cs),
(100,400,ls),
(100,400,o),
(128,400,o),
(166,400,cs),
(204,400,o),
(198,465,o),
(198,423,cs),
(198,381,o),
(200,300,o),
(200,300,cs),
(634,299,l),
(659,298,o),
(600,305,o),
(600,266,cs),
(601,109,ls),
(601,73,o),
(616,100,o),
(568,100,cs),
(222,100,l),
(196,101,o),
(200,54,o),
(200,89,cs),
(200,147,o),
(200,200,o),
(200,200,cs),
(100,200,ls),
(100,200,o),
(100,133,o),
(100,100,cs),
(100,100,o),
(118,100,o),
(168,100,cs),
(206,100,o),
(197,141,o),
(197,103,cs),
(197,32,o),
(197,0,o),
(197,0,c),
(608,0,l),
(608,0,o),
(607,66,o),
(606,96,cs),
(605,147,o),
(598,100,o),
(628,100,cs),
(688,99,o),
(700,100,o),
(700,100,cs),
(700,267,ls),
(700,299,o),
(700,300,o),
(700,300,cs),
(655,299,o),
(605,303,o),
(605,342,cs),
(605,400,o),
(606,304,o),
(568,304,cs),
(203,304,ls),
(203,304,o),
(202,328,o),
(202,372,c),
(202,617,l),
(202,633,o),
(201,600,o),
(220,600,cs),
(572,601,l),
(594,600,o),
(598,658,o),
(598,647,cs),
(598,606,o),
(600,500,o),
(600,500,cs),
(647,500,o),
(700,500,o),
(700,500,cs),
(700,570,o),
(700,600,o),
(700,600,cs),
(662,600,o),
(600,596,o),
(600,639,cs),
(600,695,o),
(599,700,o),
(599,700,cs),
(200,700,l)
);
}
);
width = 800;
}
);
unicode = 83;
},
{
glyphname = T;
lastChange = "2024-05-10 00:37:23 +0000";
layers = (
{
layerId = m01;
shapes = (
{
closed = 1;
nodes = (
(132,700,l),
(107,699,o),
(101,692,o),
(100,656,c),
(100,535,ls),
(100,497,o),
(114,500,o),
(149,500,cs),
(186,500,o),
(200,497,o),
(200,535,cs),
(200,580,o),
(203,600,o),
(230,600,cs),
(367,600,ls),
(389,600,o),
(400,599,o),
(400,563,cs),
(400,33,ls),
(400,-4,o),
(406,0,o),
(452,0,cs),
(492,0,o),
(500,0,o),
(500,32,c),
(500,574,ls),
(500,600,o),
(515,600,o),
(542,600,cs),
(660,600,ls),
(688,600,o),
(700,598,o),
(700,534,cs),
(700,497,o),
(710,500,o),
(750,500,cs),
(793,500,o),
(800,500,o),
(800,534,cs),
(800,672,ls),
(800,705,o),
(768,700,o),
(741,700,cs),
(333,700,l)
);
}
);
width = 800;
},
{
layerId = m002;
shapes = (
{
closed = 1;
nodes = (
(100,700,l),
(100,700,o),
(101,692,o),
(100,656,c),
(100,500,ls),
(100,500,o),
(114,500,o),
(149,500,cs),
(186,500,o),
(200,500,o),
(200,500,cs),
(200,500,o),
(105,695,o),
(105,695,cs),
(400,694,ls),
(400,694,o),
(400,599,o),
(400,563,cs),
(400,0,ls),
(400,0,o),
(406,0,o),
(452,0,cs),
(492,0,o),
(500,0,o),
(500,0,c),
(500,574,ls),
(500,600,o),
(500,694,o),
(500,694,cs),
(795,694,ls),
(795,694,o),
(700,500,o),
(700,500,cs),
(700,500,o),
(710,500,o),
(750,500,cs),
(793,500,o),
(800,500,o),
(800,500,cs),
(800,672,ls),
(800,705,o),
(800,700,o),
(800,700,cs),
(333,700,l)
);
}
);
width = 800;
}
);
unicode = 84;
},
{
glyphname = U;
lastChange = "2024-05-10 01:42:24 +0000";
layers = (
{
layerId = m01;
shapes = (
{
closed = 1;
nodes = (
(100,700,o),
(100,703,o),
(100,668,cs),
(100,153,ls),
(100,102,o),
(104,100,o),
(141,100,cs),
(167,100,o),
(200,104,o),
(200,69,cs),
(200,20,o),
(196,0,o),
(232,0,c),
(560,0,l),
(593,0,o),
(600,0,o),
(600,46,cs),
(600,82,o),
(611,101,o),
(646,100,cs),
(696,99,o),
(700,102,o),
(700,143,cs),
(700,669,ls),
(700,700,o),
(688,700,o),
(650,700,cs),
(612,700,o),
(600,700,o),
(600,661,cs),
(600,150,ls),
(600,123,o),
(600,100,o),
(571,100,cs),
(235,100,l),
(210,103,o),
(200,119,o),
(200,163,cs),
(200,668,ls),
(200,701,o),
(193,700,o),
(174,700,c),
(134,700,l)
);
}
);
width = 800;
},
{
layerId = m002;
shapes = (
{
closed = 1;
nodes = (
(100,700,o),
(100,703,o),
(100,668,cs),
(100,100,ls),
(100,100,o),
(179,100,o),
(216,100,cs),
(242,100,o),
(200,103,o),
(200,84,cs),
(200,35,o),
(200,0,o),
(200,0,c),
(600,0,l),
(600,0,o),
(598,20,o),
(600,66,cs),
(601,92,o),
(539,93,o),
(615,95,cs),
(665,96,o),
(700,96,o),
(700,96,cs),
(700,700,ls),
(700,700,o),
(688,700,o),
(650,700,cs),
(612,700,o),
(600,700,o),
(600,700,cs),
(600,128,ls),
(600,101,o),
(657,102,o),
(628,102,cs),
(193,102,l),
(147,103,o),
(203,101,o),
(203,118,cs),
(200,668,ls),
(200,701,o),
(200,700,o),
(200,700,c),
(100,700,l)
);
}
);
width = 800;
}
);
unicode = 85;
},
{
glyphname = V;
lastChange = "2024-05-10 01:42:41 +0000";
layers = (
{
layerId = m01;
shapes = (
{
closed = 1;
nodes = (
(99,700,o),
(100,696,o),
(100,664,cs),
(100,256,ls),
(100,197,o),
(102,200,o),
(133,200,cs),
(169,200,o),
(200,202,o),
(200,169,cs),
(200,113,o),
(198,100,o),
(236,100,cs),
(274,100,o),
(300,103,o),
(300,75,cs),
(301,13,o),
(295,0,o),
(326,0,c),
(470,0,l),
(498,0,o),
(500,7,o),
(500,42,cs),
(500,77,o),
(500,100,o),
(532,100,cs),
(583,100,o),
(600,98,o),
(600,143,cs),
(600,188,o),
(601,200,o),
(634,200,cs),
(684,200,o),
(700,196,o),
(700,234,cs),
(700,664,ls),
(700,700,o),
(686,700,o),
(648,700,cs),
(610,700,o),
(600,700,o),
(600,664,cs),
(600,258,ls),
(600,221,o),
(583,198,o),
(551,199,cs),
(519,200,o),
(500,191,o),
(500,168,cs),
(500,137,o),
(507,100,o),
(460,100,cs),
(333,100,ls),
(314,100,o),
(300,126,o),
(300,157,cs),
(300,199,o),
(296,200,o),
(268,200,cs),
(240,200,o),
(200,194,o),
(200,242,cs),
(200,664,ls),
(200,696,o),
(193,700,o),
(179,700,c),
(130,700,l)
);
}
);
width = 800;
},
{
layerId = m002;
shapes = (
{
closed = 1;
nodes = (
(100,700,o),
(100,696,o),
(100,664,cs),
(100,200,ls),
(100,200,o),
(123,200,o),
(173,200,cs),
(204,200,o),
(200,274,o),
(200,234,cs),
(200,178,o),
(200,100,o),
(200,100,cs),
(200,100,o),
(297,197,o),
(297,197,cs),
(297,135,o),
(298,0,o),
(298,0,c),
(502,0,l),
(502,0,o),
(503,195,o),
(503,195,cs),
(503,196,o),
(600,100,o),
(600,100,cs),
(600,125,o),
(602,159,o),
(602,204,cs),
(602,249,o),
(600,200,o),
(622,200,cs),
(672,200,o),
(700,200,o),
(700,200,cs),
(700,700,ls),
(700,700,o),
(686,700,o),
(648,700,cs),
(610,700,o),
(598,700,o),
(598,700,cs),
(597,191,ls),
(597,154,o),
(604,198,o),
(572,199,cs),
(540,200,o),
(500,200,o),
(500,200,cs),
(500,169,o),
(500,4,o),
(500,4,cs),
(302,4,ls),
(302,4,o),
(300,169,o),
(300,200,cs),
(300,200,o),
(259,199,o),
(231,200,cs),
(203,201,o),
(202,147,o),
(202,195,cs),
(202,664,ls),
(202,696,o),
(202,700,o),
(202,700,c),
(100,700,l)
);
}
);
width = 800;
}
);
unicode = 86;
},
{
glyphname = W;
lastChange = "2024-05-10 01:42:53 +0000";
layers = (
{
layerId = m01;
shapes = (
{
closed = 1;
nodes = (
(4,700,o),
(0,700,o),
(0,664,cs),
(0,258,ls),
(0,207,o),
(-4,200,o),
(30,200,cs),
(64,200,o),
(100,199,o),
(100,162,cs),
(100,96,o),
(97,100,o),
(145,100,cs),
(185,100,o),
(200,102,o),
(200,72,cs),
(200,27,ls),
(200,-4,o),
(227,0,o),
(251,0,cs),
(280,0,o),
(300,-2,o),
(300,28,cs),
(300,65,o),
(295,101,o),
(332,101,cs),
(376,101,o),
(400,101,o),
(400,73,cs),
(400,-1,o),
(399,0,o),
(440,0,cs),
(481,0,o),
(500,-3,o),
(500,32,cs),
(500,71,o),
(514,100,o),
(549,100,cs),
(582,100,o),
(600,95,o),
(600,131,cs),
(600,172,o),
(609,200,o),
(646,200,cs),
(686,200,o),
(700,197,o),
(700,239,c),
(700,664,l),
(700,700,o),
(693,700,o),
(648,700,cs),
(610,700,o),
(600,705,o),
(600,665,cs),
(600,248,ls),
(600,217,o),
(592,200,o),
(551,200,cs),
(510,200,o),
(500,201,o),
(500,173,cs),
(500,145,o),
(507,99,o),
(469,100,c),
(429,100,ls),
(408,100,o),
(400,112,o),
(400,159,c),
(400,358,l),
(400,400,o),
(390,400,o),
(345,400,cs),
(312,400,o),
(300,403,o),
(300,361,cs),
(300,143,ls),
(300,103,o),
(305,100,o),
(249,100,cs),
(196,100,o),
(200,110,o),
(200,153,cs),
(200,199,o),
(192,200,o),
(168,200,cs),
(122,200,l),
(102,200,o),
(100,204,o),
(100,268,cs),
(100,642,ls),
(100,686,o),
(99,700,o),
(75,700,c),
(48,700,l)
);
}
);
width = 800;
},
{
layerId = m002;
shapes = (
{
closed = 1;
nodes = (
(0,700,o),
(0,700,o),
(0,664,cs),
(0,200,ls),
(0,200,o),
(16,200,o),
(50,200,cs),
(97,200,o),
(97,285,o),
(97,248,cs),
(97,182,o),
(98,100,o),
(98,100,cs),
(98,100,o),
(198,196,o),
(198,196,cs),
(198,0,ls),
(198,0,o),
(227,0,o),
(251,0,cs),
(280,0,o),
(300,0,o),
(300,0,cs),
(300,33,o),
(293,103,o),
(348,101,cs),
(409,99,o),
(400,32,o),
(400,0,cs),
(400,0,o),
(412,0,o),
(440,0,cs),
(481,0,o),
(500,0,o),
(500,0,cs),
(500,59,o),
(500,197,o),
(500,197,cs),
(500,197,o),
(603,100,o),
(603,100,cs),
(610,314,o),
(589,200,o),
(626,200,cs),
(666,200,o),
(700,200,o),
(700,200,c),
(700,700,l),
(700,700,o),
(693,700,o),
(648,700,cs),
(610,700,o),
(600,700,o),
(600,700,cs),
(600,177,ls),
(600,146,o),
(600,200,o),
(578,200,cs),
(535,200,o),
(498,200,o),
(498,200,cs),
(498,228,o),
(498,50,o),
(498,3,c),
(408,95,ls),
(389,114,o),
(345,89,o),
(400,116,c),
(400,400,l),
(400,400,o),
(390,400,o),
(345,400,cs),
(312,400,o),
(300,400,o),
(300,400,cs),
(300,114,ls),
(300,96,o),
(364,103,o),
(293,101,cs),
(293,101,o),
(200,4,o),
(200,4,cs),
(200,43,o),
(200,200,o),
(200,200,cs),
(143,200,l),
(102,200,o),
(102,101,o),
(102,165,cs),
(100,642,ls),
(100,686,o),
(99,700,o),
(99,700,c),
(0,700,l)
);
}
);
width = 800;
}
);
unicode = 87;
},
{
glyphname = X;
lastChange = "2024-05-10 01:43:06 +0000";
layers = (
{
layerId = m01;
shapes = (
{
closed = 1;
nodes = (
(115,700,o),
(100,706,o),
(100,672,cs),
(100,542,ls),
(100,521,o),
(96,500,o),
(126,500,cs),
(162,500,o),
(200,503,o),
(200,475,cs),
(200,429,o),
(195,400,o),
(229,400,cs),
(263,400,o),
(301,404,o),
(301,374,cs),
(301,339,o),
(303,300,o),
(256,300,cs),
(209,300,o),
(200,300,o),
(200,273,cs),
(200,246,o),
(196,200,o),
(154,200,cs),
(112,200,o),
(100,200,o),
(100,172,cs),
(100,29,ls),
(100,0,o),
(116,0,o),
(149,0,cs),
(183,0,o),
(200,-3,o),
(200,29,cs),
(200,167,ls),
(200,189,o),
(206,200,o),
(232,200,cs),
(275,200,ls),
(296,200,o),
(300,197,o),
(300,231,cs),
(300,267,o),
(298,300,o),
(341,300,cs),
(463,300,l),
(491,299,o),
(500,302,o),
(500,276,cs),
(500,222,o),
(496,200,o),
(530,200,cs),
(564,200,o),
(600,198,o),
(600,162,cs),
(600,41,ls),
(600,-5,o),
(606,0,o),
(653,0,cs),
(685,0,o),
(700,-5,o),
(700,41,c),
(700,176,ls),
(700,201,o),
(687,200,o),
(650,200,cs),
(624,200,o),
(600,203,o),
(600,253,cs),
(600,303,o),
(588,300,o),
(548,300,cs),
(519,300,o),
(500,296,o),
(500,344,cs),
(500,399,o),
(506,401,o),
(540,400,cs),
(574,399,o),
(599,393,o),
(600,431,cs),
(601,469,o),
(609,500,o),
(649,500,cs),
(689,500,o),
(700,500,o),
(700,529,c),
(700,680,l),
(700,700,o),
(673,701,o),
(647,700,cs),
(621,699,o),
(600,704,o),
(600,680,cs),
(600,547,ls),
(600,524,o),
(600,500,o),
(561,500,cs),
(522,500,o),
(501,500,o),
(500,482,cs),
(499,457,o),
(507,400,o),
(466,400,cs),
(331,400,ls),
(316,400,o),
(299,401,o),
(300,440,cs),
(301,479,o),
(303,500,o),
(273,500,cs),
(242,500,o),
(200,496,o),
(201,553,cs),
(201,676,ls),
(201,700,o),
(194,700,o),
(180,700,cs),
(145,700,l)
);
}
);
width = 800;
},
{
layerId = m002;
shapes = (
{
closed = 1;
nodes = (
(100,700,o),
(100,706,o),
(100,672,cs),
(100,500,ls),
(100,500,o),
(139,500,o),
(169,500,cs),
(274,499,o),
(200,507,o),
(200,484,cs),
(199,438,o),
(200,400,o),
(200,400,cs),
(432,397,o),
(301,404,o),
(301,384,cs),
(301,349,o),
(293,297,o),
(199,300,cs),
(199,300,o),
(199,283,o),
(199,273,cs),
(198,246,o),
(197,173,o),
(197,173,cs),
(196,202,o),
(100,200,o),
(100,200,cs),
(100,0,ls),
(100,0,o),
(116,0,o),
(149,0,cs),
(183,0,o),
(200,0,o),
(200,0,cs),
(202,296,ls),
(202,296,o),
(267,200,o),
(267,200,cs),
(278,200,ls),
(299,200,o),
(304,200,o),
(304,200,cs),
(304,237,o),
(306,385,o),
(306,385,cs),
(496,385,l),
(496,385,o),
(496,230,o),
(496,200,cs),
(496,200,o),
(535,200,o),
(535,200,cs),
(535,200,o),
(597,297,o),
(597,297,cs),
(597,0,ls),
(597,0,o),
(606,0,o),
(653,0,cs),
(685,0,o),
(700,0,o),
(700,0,c),
(700,200,ls),
(700,200,o),
(669,200,o),
(632,200,cs),
(595,200,o),
(600,139,o),
(600,189,cs),
(600,239,o),
(600,300,o),
(600,300,cs),
(522,300,o),
(500,293,o),
(500,387,cs),
(500,399,o),
(400,394,o),
(513,398,cs),
(547,399,o),
(600,400,o),
(600,400,cs),
(600,424,o),
(600,463,o),
(600,478,cs),
(600,490,o),
(603,486,o),
(566,498,c),
(700,499,l),
(700,519,o),
(699,700,o),
(699,700,cs),
(699,700,o),
(600,700,o),
(600,700,cs),
(600,521,ls),
(600,493,o),
(728,505,o),
(500,500,cs),
(500,500,o),
(500,441,o),
(499,423,cs),
(498,398,o),
(593,401,o),
(510,401,cs),
(329,401,ls),
(209,401,o),
(298,394,o),
(300,418,cs),
(303,457,o),
(300,504,o),
(300,504,cs),
(92,504,o),
(201,499,o),
(201,525,cs),
(201,676,ls),
(201,700,o),
(201,700,o),
(201,700,cs),
(100,700,l)
);
}
);
width = 800;
}
);
unicode = 88;
},
{
glyphname = Y;
lastChange = "2024-05-10 01:43:12 +0000";
layers = (
{
layerId = m01;
shapes = (
{
closed = 1;
nodes = (
(102,700,o),
(100,702,o),
(100,667,cs),
(100,440,ls),
(100,395,o),
(105,400,o),
(137,400,cs),
(169,400,o),
(200,396,o),
(200,360,cs),
(200,304,o),
(208,300,o),
(247,300,cs),
(286,300,o),
(300,304,o),
(300,267,cs),
(300,48,ls),
(300,-2,o),
(313,0,o),
(351,0,cs),
(399,0,o),
(400,-4,o),
(400,58,cs),
(400,266,ls),
(400,305,o),
(432,300,o),
(454,300,cs),
(476,300,o),
(500,308,o),
(500,342,cs),
(500,376,o),
(500,400,o),
(531,400,cs),
(590,400,o),
(600,400,o),
(600,443,c),
(600,670,l),
(600,700,o),
(581,700,o),
(549,700,cs),
(517,700,o),
(500,702,o),
(500,672,cs),
(500,437,l),
(482,403,o),
(469,400,o),
(442,400,cs),
(415,400,o),
(400,400,o),
(400,366,cs),
(400,309,o),
(402,299,o),
(348,300,cs),
(308,301,o),
(300,297,o),
(300,361,cs),
(300,407,o),
(287,399,o),
(252,400,cs),
(223,401,o),
(200,393,o),
(200,453,c),
(200,668,l),
(200,702,o),
(188,700,o),
(173,700,c),
(142,700,l)
);
}
);
width = 800;
},
{
layerId = m002;
shapes = (
{
closed = 1;
nodes = (
(100,700,o),
(100,702,o),
(100,667,cs),
(100,400,ls),
(100,400,o),
(146,399,o),
(178,400,cs),
(202,401,o),
(200,464,o),
(200,428,cs),
(200,372,o),
(200,300,o),
(200,300,cs),
(200,300,o),
(297,397,o),
(297,397,cs),
(297,0,ls),
(297,0,o),
(313,0,o),
(351,0,cs),
(402,0,o),
(403,0,o),
(403,0,cs),
(403,396,ls),
(403,396,o),
(500,300,o),
(500,300,cs),
(500,300,o),
(500,421,o),
(500,455,cs),
(500,489,o),
(500,400,o),
(531,400,cs),
(590,400,o),
(600,400,o),
(600,400,c),
(600,700,l),
(600,700,o),
(581,700,o),
(549,700,cs),
(517,700,o),
(496,700,o),
(496,700,cs),
(493,354,l),
(493,354,o),
(491,400,o),
(464,400,cs),
(437,400,o),
(400,400,o),
(400,400,cs),
(400,294,o),
(402,300,o),
(348,300,cs),
(293,300,o),
(300,295,o),
(300,400,cs),
(300,400,o),
(278,400,o),
(243,400,cs),
(208,400,o),
(203,327,o),
(203,387,c),
(202,668,l),
(202,693,o),
(202,700,o),
(202,700,c),
(100,700,l)
);
}
);
width = 800;
}
);
unicode = 89;
},
{
glyphname = Z;
lastChange = "2024-05-10 01:37:09 +0000";
layers = (
{
layerId = m01;
shapes = (
{
closed = 1;
nodes = (
(108,700,o),
(100,705,o),
(100,652,cs),
(100,602,o),
(103,600,o),
(127,600,cs),
(459,600,ls),
(483,600,o),
(500,597,o),
(500,632,cs),
(500,687,o),
(498,700,o),
(476,700,cs),
(158,700,l)
);
},
{
closed = 1;
nodes = (
(603,700,o),
(600,702,o),
(600,672,cs),
(600,550,ls),
(600,512,o),
(589,500,o),
(550,500,cs),
(510,500,o),
(500,500,o),
(500,464,cs),
(500,426,o),
(487,400,o),
(448,400,cs),
(409,400,o),
(400,400,o),
(400,366,cs),
(400,334,o),
(392,300,o),
(351,300,cs),
(310,300,o),
(300,300,o),
(300,266,cs),
(300,232,o),
(286,200,o),
(253,200,cs),
(220,200,o),
(200,205,o),
(200,177,cs),
(200,149,o),
(191,100,o),
(154,100,cs),
(108,100,o),
(100,105,o),
(100,58,cs),
(100,-5,o),
(101,0,o),
(150,0,cs),
(197,0,o),
(200,-2,o),
(200,34,cs),
(200,61,o),
(206,100,o),
(248,100,cs),
(308,100,o),
(300,99,o),
(300,153,cs),
(300,192,o),
(309,200,o),
(348,200,cs),
(387,200,o),
(400,204,o),
(400,242,cs),
(400,280,o),
(408,300,o),
(455,300,cs),
(497,300,o),
(499,300,o),
(500,361,cs),
(500,390,o),
(515,400,o),
(547,400,cs),
(579,400,o),
(600,391,o),
(600,440,cs),
(600,489,o),
(625,500,o),
(652,500,cs),
(679,500,o),
(700,495,o),
(700,539,cs),
(700,675,ls),
(700,700,o),
(694,700,o),
(683,700,cs),
(643,700,l)
);
},
{
closed = 1;
nodes = (
(304,100,o),
(300,100,o),
(300,56,cs),
(300,9,o),
(296,0,o),
(331,0,cs),
(675,0,l),
(698,-1,o),
(700,15,o),
(700,43,cs),
(700,71,o),
(704,100,o),
(673,100,cs),
(341,99,l)
);
}
);
width = 800;
},
{
layerId = m002;
shapes = (
{
closed = 1;
nodes = (
(100,700,o),
(100,705,o),
(100,652,cs),
(100,602,o),
(100,600,o),
(100,600,cs),
(500,600,ls),
(500,600,o),
(500,597,o),
(500,632,cs),
(500,687,o),
(500,700,o),
(500,700,cs),
(100,700,l)
);
},
{
closed = 1;
nodes = (
(600,700,o),
(600,702,o),
(600,672,cs),
(600,406,ls),
(600,406,o),
(500,500,o),
(500,500,cs),
(500,500,o),
(500,305,o),
(500,305,cs),
(500,305,o),
(400,400,o),
(400,400,cs),
(400,400,o),
(400,300,o),
(400,266,cs),
(400,234,o),
(406,300,o),
(365,300,cs),
(324,300,o),
(300,300,o),
(300,300,cs),
(300,269,o),
(300,103,o),
(300,103,cs),
(300,103,o),
(200,200,o),
(200,200,cs),
(200,124,o),
(181,100,o),
(100,100,cs),
(100,100,o),
(100,36,o),
(100,0,cs),
(100,0,o),
(152,0,o),
(201,0,cs),
(201,0,o),
(201,158,o),
(201,194,cs),
(201,203,o),
(233,100,o),
(236,100,cs),
(296,100,o),
(302,100,o),
(302,100,cs),
(302,207,o),
(321,200,o),
(348,200,cs),
(358,200,o),
(400,200,o),
(400,200,cs),
(400,238,o),
(467,300,o),
(503,300,cs),
(503,300,o),
(502,351,o),
(503,400,cs),
(503,400,o),
(514,400,o),
(605,400,cs),
(605,400,o),
(604,468,o),
(604,517,cs),
(604,566,o),
(602,500,o),
(629,500,cs),
(656,500,o),
(700,500,o),
(700,500,cs),
(700,675,ls),
(700,700,o),
(700,700,o),
(700,700,cs),
(600,700,l)
);
},
{
closed = 1;
nodes = (
(307,100,o),
(307,36,o),
(307,0,cs),
(307,0,o),
(317,0,o),
(331,0,cs),
(700,0,l),
(700,0,o),
(700,15,o),
(700,43,cs),
(700,71,o),
(700,100,o),
(700,100,cs),
(307,100,l)
);
}
);
width = 800;
}
);
unicode = 90;
},
{
glyphname = one;
lastChange = "2024-05-10 03:57:43 +0000";
layers = (
{
layerId = m01;
shapes = (
{
closed = 1;
nodes = (
(213,700,o),
(199,700,o),
(200,662,cs),
(201,624,o),
(200,600,o),
(158,600,cs),
(104,600,o),
(100,605,o),
(100,568,cs),
(100,500,o),
(95,500,o),
(134,500,cs),
(269,500,l),
(303,499,o),
(299,511,o),
(300,535,cs),
(301,559,o),
(294,600,o),
(327,600,cs),
(456,600,ls),
(491,600,o),
(500,605,o),
(500,545,cs),
(500,153,ls),
(500,118,o),
(508,100,o),
(449,100,cs),
(159,100,ls),
(106,100,o),
(100,100,o),
(100,78,cs),
(100,24,ls),
(100,-4,o),
(104,0,o),
(131,0,c),
(658,0,ls),
(692,0,o),
(700,0,o),
(700,26,cs),
(700,100,o),
(704,100,o),
(665,100,cs),
(635,100,o),
(600,99,o),
(600,131,cs),
(600,671,l),
(600,693,o),
(591,700,o),
(561,700,cs),
(248,700,l)
);
}
);
width = 800;
},
{
layerId = m002;
shapes = (
{
closed = 1;
nodes = (
(299,700,o),
(299,700,o),
(300,662,cs),
(301,591,o),
(242,600,o),
(200,600,cs),
(200,600,o),
(200,605,o),
(200,568,cs),
(200,500,o),
(200,500,o),
(200,500,cs),
(400,500,l),
(400,500,o),
(400,669,o),
(400,693,cs),
(400,718,o),
(401,600,o),
(434,600,cs),
(564,600,ls),
(599,600,o),
(600,740,o),
(600,680,cs),
(600,26,ls),
(600,-21,o),
(608,100,o),
(549,100,cs),
(200,100,ls),
(200,100,o),
(200,100,o),
(200,78,cs),
(200,0,ls),
(200,0,o),
(204,0,o),
(231,0,c),
(800,0,ls),
(800,0,o),
(800,74,o),
(800,100,cs),
(800,100,o),
(780,100,o),
(741,100,cs),
(695,100,o),
(700,-27,o),
(700,43,cs),
(700,671,l),
(700,693,o),
(700,700,o),
(700,700,cs),
(299,700,l)
);
}
);
width = 1000;
}
);
unicode = 49;
},
{
glyphname = two;
lastChange = "2024-05-10 04:02:44 +0000";
layers = (
{
layerId = m01;
shapes = (
{
closed = 1;
nodes = (
(210,698,o),
(200,708,o),
(200,669,cs),
(200,635,o),
(207,600,o),
(167,600,cs),
(106,600,o),
(100,605,o),
(100,547,cs),
(100,505,o),
(98,500,o),
(128,500,cs),
(269,500,ls),
(300,500,o),
(300,506,o),
(300,524,c),
(300,585,l),
(300,599,o),
(314,600,o),
(329,600,c),
(551,600,ls),
(585,600,o),
(600,600,o),
(600,570,cs),
(600,495,o),
(600,500,o),
(568,500,cs),
(519,500,o),
(500,501,o),
(500,458,cs),
(500,415,o),
(495,400,o),
(457,400,cs),
(406,400,o),
(400,402,o),
(400,361,cs),
(400,320,o),
(397,300,o),
(357,300,cs),
(306,300,o),
(300,299,o),
(300,264,cs),
(300,229,o),
(300,200,o),
(257,200,cs),
(214,200,o),
(200,200,o),
(200,169,cs),
(200,135,o),
(179,101,o),
(156,100,c),
(124,100,ls),
(110,100,o),
(100,96,o),
(100,62,cs),
(100,9,o),
(96,0,o),
(122,0,cs),
(674,0,l),
(700,0,o),
(699,8,o),
(700,27,c),
(700,78,l),
(700,100,o),
(688,101,o),
(671,100,c),
(337,100,ls),
(311,100,o),
(300,103,o),
(300,135,cs),
(300,167,o),
(295,200,o),
(338,200,cs),
(381,200,o),
(400,195,o),
(400,227,cs),
(400,279,l),
(399,290,o),
(409,300,o),
(425,300,cs),
(478,300,ls),
(497,300,o),
(500,308,o),
(500,328,cs),
(500,375,l),
(498,402,o),
(521,400,o),
(536,400,cs),
(579,400,ls),
(601,400,o),
(600,411,o),
(600,430,cs),
(600,472,l),
(598,490,o),
(625,500,o),
(645,500,cs),
(704,500,o),
(700,502,o),
(700,538,c),
(700,676,l),
(700,700,o),
(674,700,o),
(635,700,c),
(254,700,l)
);
}
);
width = 800;
},
{
layerId = m002;
shapes = (
{
closed = 1;
nodes = (
(300,700,o),
(300,708,o),
(300,669,cs),
(300,600,o),
(298,598,o),
(200,600,cs),
(200,600,o),
(200,605,o),
(200,547,cs),
(200,505,o),
(200,500,o),
(200,500,cs),
(400,500,ls),
(400,500,o),
(400,506,o),
(400,524,c),
(400,694,l),
(400,708,o),
(414,600,o),
(429,600,c),
(660,600,ls),
(686,600,o),
(700,694,o),
(700,694,cs),
(699,515,o),
(708,500,o),
(600,500,cs),
(600,500,o),
(600,501,o),
(600,458,cs),
(600,399,o),
(582,400,o),
(500,400,cs),
(500,400,o),
(500,402,o),
(500,361,cs),
(500,290,o),
(440,300,o),
(400,300,cs),
(400,300,o),
(400,299,o),
(400,264,cs),
(400,198,o),
(370,200,o),
(300,200,cs),
(300,200,o),
(300,200,o),
(300,169,cs),
(300,135,o),
(300,8,o),
(300,8,c),
(200,100,ls),
(200,100,o),
(200,96,o),
(200,62,cs),
(200,9,o),
(200,0,o),
(200,0,cs),
(800,0,l),
(800,0,o),
(799,8,o),
(800,27,c),
(800,100,l),
(800,100,o),
(777,9,o),
(777,9,c),
(400,9,ls),
(400,9,o),
(400,147,o),
(400,179,cs),
(400,206,o),
(346,200,o),
(400,200,cs),
(443,200,o),
(500,200,o),
(500,200,cs),
(500,290,l),
(499,301,o),
(469,300,o),
(485,300,cs),
(578,300,ls),
(597,300,o),
(600,300,o),
(600,300,cs),
(600,394,l),
(600,402,o),
(568,400,o),
(613,400,cs),
(679,400,ls),
(701,400,o),
(700,400,o),
(700,400,cs),
(700,556,l),
(700,556,o),
(705,500,o),
(725,500,cs),
(784,500,o),
(800,500,o),
(800,500,c),
(800,676,l),
(800,700,o),
(800,700,o),
(800,700,c),
(300,700,l)
);
}
);
width = 1000;
}
);
unicode = 50;
},
{
glyphname = three;
lastChange = "2024-05-10 04:05:56 +0000";
layers = (
{
layerId = m01;
shapes = (
{
closed = 1;
nodes = (
(113,700,o),
(100,696,o),
(100,673,cs),
(100,555,ls),
(100,519,o),
(99,500,o),
(119,500,c),
(181,500,l),
(198,499,o),
(199,512,o),
(199,528,cs),
(199,572,ls),
(199,594,o),
(216,601,o),
(236,600,c),
(559,600,ls),
(589,600,o),
(599,573,o),
(600,556,c),
(600,451,ls),
(600,436,o),
(588,402,o),
(556,400,c),
(329,400,ls),
(299,400,o),
(300,396,o),
(300,344,cs),
(300,299,o),
(300,300,o),
(337,300,cs),
(557,300,ls),
(589,300,o),
(600,287,o),
(600,257,cs),
(600,143,ls),
(600,113,o),
(593,100,o),
(564,100,cs),
(230,100,ls),
(201,100,o),
(200,111,o),
(200,146,cs),
(200,200,o),
(203,200,o),
(151,200,cs),
(113,200,o),
(100,203,o),
(100,177,cs),
(100,49,ls),
(100,10,o),
(101,2,o),
(129,0,c),
(672,0,ls),
(702,0,o),
(700,18,o),
(700,45,c),
(700,612,l),
(700,637,o),
(702,700,o),
(645,700,cs),
(158,700,l)
);
}
);
width = 800;
},
{
layerId = m002;
shapes = (
{
closed = 1;
nodes = (
(200,700,o),
(200,696,o),
(200,673,cs),
(200,500,ls),
(200,500,o),
(199,500,o),
(219,500,c),
(300,500,l),
(300,500,o),
(300,512,o),
(300,528,cs),
(300,692,ls),
(300,692,o),
(310,692,o),
(330,692,c),
(650,692,ls),
(680,692,o),
(700,692,o),
(700,692,c),
(700,361,ls),
(700,349,o),
(696,402,o),
(664,400,c),
(399,400,ls),
(399,400,o),
(400,352,o),
(400,300,cs),
(400,300,o),
(400,300,o),
(437,300,cs),
(664,300,ls),
(703,300,o),
(700,365,o),
(700,339,cs),
(699,6,ls),
(699,6,o),
(693,6,o),
(680,6,cs),
(216,6,ls),
(163,6,o),
(300,98,o),
(300,133,cs),
(300,187,o),
(300,200,o),
(300,200,cs),
(262,200,o),
(200,200,o),
(200,200,cs),
(200,0,ls),
(200,0,o),
(201,0,o),
(229,0,c),
(772,0,ls),
(802,0,o),
(800,0,o),
(800,0,c),
(800,612,l),
(800,637,o),
(800,700,o),
(800,700,cs),
(200,700,l)
);
}
);
width = 1000;
}
);
unicode = 51;
},
{
glyphname = four;
lastChange = "2024-05-10 04:11:06 +0000";
layers = (
{
layerId = m01;
shapes = (
{
closed = 1;
nodes = (
(508,700,o),
(500,700,o),
(500,676,cs),
(500,625,ls),
(500,604,o),
(483,600,o),
(461,600,cs),
(439,600,o),
(401,602,o),
(400,572,cs),
(399,537,o),
(406,501,o),
(373,500,cs),
(340,499,o),
(300,505,o),
(300,469,cs),
(300,433,o),
(308,400,o),
(270,400,cs),
(218,400,o),
(200,403,o),
(200,379,cs),
(200,228,ls),
(200,211,o),
(200,201,o),
(216,201,c),
(568,201,ls),
(588,201,o),
(600,191,o),
(600,165,cs),
(600,36,ls),
(600,9,o),
(606,1,o),
(617,0,c),
(681,0,l),
(702,-2,o),
(700,14,o),
(700,32,c),
(700,168,l),
(700,187,o),
(713,201,o),
(733,201,cs),
(780,201,o),
(800,186,o),
(800,300,cs),
(800,361,o),
(800,400,o),
(761,400,cs),
(732,400,o),
(700,394,o),
(700,447,cs),
(700,667,l),
(700,694,o),
(690,701,o),
(667,700,c),
(548,700,l)
);
},
{
closed = 1;
nodes = (
(577,601,ls),
(593,601,o),
(600,597,o),
(600,577,cs),
(601,326,ls),
(601,312,o),
(598,299,o),
(570,299,cs),
(428,299,ls),
(407,299,o),
(400,305,o),
(400,316,cs),
(401,477,ls),
(401,512,o),
(442,500,o),
(475,501,cs),
(508,502,o),
(500,529,o),
(501,561,cs),
(502,593,o),
(506,600,o),
(527,600,c)
);
}
);
width = 1000;
},
{
layerId = m002;
shapes = (
{
closed = 1;
nodes = (
(500,700,o),
(500,700,o),
(500,676,cs),
(500,524,ls),
(500,503,o),
(400,600,o),
(400,600,cs),
(400,600,o),
(400,526,o),
(400,497,cs),
(399,426,o),
(409,500,o),
(367,500,cs),
(334,500,o),
(300,500,o),
(300,500,cs),
(300,464,o),
(308,400,o),
(270,400,cs),
(218,400,o),
(200,400,o),
(200,400,cs),
(200,200,ls),
(200,200,o),
(200,200,o),
(216,200,c),
(666,200,ls),
(687,200,o),
(600,199,o),
(600,165,cs),
(600,0,ls),
(600,0,o),
(606,1,o),
(617,0,c),
(681,0,l),
(699,0,o),
(700,0,o),
(700,0,c),
(700,200,l),
(700,200,o),
(800,200,o),
(800,200,cs),
(800,200,o),
(800,186,o),
(800,300,cs),
(800,361,o),
(800,400,o),
(800,400,cs),
(800,400,o),
(700,214,o),
(700,214,cs),
(700,667,l),
(700,695,o),
(700,700,o),
(700,700,c),
(500,700,l)
);
},
{
closed = 1;
nodes = (
(600,600,ls),
(600,600,o),
(600,597,o),
(600,577,cs),
(601,326,ls),
(601,312,o),
(600,207,o),
(600,207,cs),
(428,207,ls),
(409,207,o),
(400,207,o),
(400,207,cs),
(404,503,ls),
(404,533,o),
(376,501,o),
(502,501,cs),
(502,501,o),
(502,561,o),
(502,561,cs),
(502,561,o),
(497,694,o),
(518,694,c)
);
}
);
width = 1000;
}
);
unicode = 52;
},
{
glyphname = five;
lastChange = "2024-05-10 04:15:44 +0000";
layers = (
{
layerId = m01;
shapes = (
{
closed = 1;
nodes = (
(208,701,o),
(200,692,o),
(200,668,cs),
(200,537,ls),
(200,511,o),
(205,501,o),
(225,500,c),
(274,500,l),
(301,499,o),
(300,488,o),
(300,458,cs),
(300,339,l),
(299,303,o),
(298,300,o),
(323,300,c),
(376,300,l),
(401,300,o),
(400,301,o),
(400,340,cs),
(400,373,o),
(402,400,o),
(432,400,cs),
(652,400,ls),
(680,400,o),
(700,390,o),
(700,365,cs),
(700,302,o),
(700,300,o),
(719,300,cs),
(745,300,o),
(800,305,o),
(800,263,cs),
(800,144,ls),
(800,119,o),
(784,100,o),
(757,100,cs),
(325,100,l),
(304,101,o),
(300,120,o),
(300,151,cs),
(300,203,o),
(298,200,o),
(246,200,cs),
(206,200,o),
(200,200,o),
(200,168,cs),
(200,44,l),
(200,0,o),
(207,0,o),
(226,0,c),
(868,0,l),
(894,0,o),
(900,-3,o),
(900,42,c),
(900,273,l),
(900,301,o),
(884,300,o),
(862,300,cs),
(840,300,o),
(800,297,o),
(800,354,cs),
(800,400,o),
(795,400,o),
(756,400,cs),
(733,400,o),
(698,398,o),
(699,437,cs),
(700,500,o),
(694,500,o),
(663,500,c),
(415,500,l),
(324,500,l),
(308,498,o),
(300,508,o),
(300,522,c),
(300,573,ls),
(300,597,o),
(305,600,o),
(321,600,cs),
(763,600,l),
(879,600,l),
(900,600,o),
(899,605,o),
(900,634,c),
(900,683,l),
(900,700,o),
(884,699,o),
(871,699,cs),
(248,700,l)
);
}
);
width = 1000;
},
{
layerId = m002;
shapes = (
{
closed = 1;
nodes = (
(199,700,o),
(200,692,o),
(200,668,cs),
(200,500,ls),
(200,500,o),
(205,501,o),
(225,500,c),
(324,500,l),
(351,499,o),
(300,504,o),
(300,474,cs),
(300,300,l),
(300,300,o),
(298,300,o),
(323,300,c),
(400,300,l),
(400,300,o),
(400,477,o),
(400,477,cs),
(400,513,o),
(383,500,o),
(408,500,cs),
(694,500,ls),
(694,500,o),
(694,365,o),
(694,365,cs),
(694,302,o),
(694,300,o),
(694,300,cs),
(694,300,o),
(798,397,o),
(798,397,cs),
(800,144,ls),
(800,119,o),
(798,6,o),
(798,6,cs),
(316,6,l),
(295,7,o),
(300,-3,o),
(300,6,cs),
(300,58,o),
(300,200,o),
(300,200,cs),
(260,200,o),
(200,200,o),
(200,200,cs),
(200,44,l),
(200,0,o),
(200,0,o),
(200,0,c),
(900,0,l),
(900,0,o),
(900,-3,o),
(900,42,c),
(900,273,l),
(900,301,o),
(900,300,o),
(900,300,cs),
(878,300,o),
(800,297,o),
(800,354,cs),
(800,400,o),
(800,400,o),
(800,400,cs),
(777,400,o),
(699,398,o),
(700,437,cs),
(701,500,o),
(700,506,o),
(700,506,c),
(415,506,l),
(275,506,l),
(251,506,o),
(300,507,o),
(300,521,c),
(299,694,ls),
(299,704,o),
(298,692,o),
(314,692,cs),
(879,690,l),
(879,600,l),
(900,600,o),
(901,601,o),
(900,600,c),
(900,700,l),
(900,700,o),
(884,700,o),
(871,700,cs),
(199,700,l)
);
}
);
width = 1000;
}
);
unicode = 53;
},
{
glyphname = six;
lastChange = "2024-05-10 04:26:05 +0000";
layers = (
{
layerId = m01;
shapes = (
{
closed = 1;
nodes = (
(309,700,o),
(300,704,o),
(300,674,cs),
(300,615,o),
(302,600,o),
(273,600,cs),
(225,600,ls),
(211,600,o),
(200,597,o),
(200,565,cs),
(200,55,ls),
(200,12,o),
(210,1,o),
(240,0,c),
(770,0,l),
(796,0,o),
(800,27,o),
(800,47,cs),
(800,267,l),
(799,298,o),
(779,300,o),
(750,300,cs),
(721,300,o),
(699,322,o),
(699,349,cs),
(699,376,o),
(702,400,o),
(659,400,cs),
(331,400,ls),
(309,400,o),
(300,412,o),
(300,443,c),
(300,564,l),
(300,581,o),
(318,600,o),
(340,600,cs),
(674,600,ls),
(696,600,o),
(700,591,o),
(700,567,cs),
(700,543,o),
(692,500,o),
(726,500,cs),
(760,500,o),
(799,493,o),
(800,532,cs),
(800,672,l),
(800,700,o),
(787,700,o),
(761,700,c),
(341,700,l)
);
},
{
closed = 1;
nodes = (
(662,300,ls),
(686,300,o),
(701,292,o),
(701,269,cs),
(700,139,ls),
(700,113,o),
(693,104,o),
(668,100,c),
(327,100,ls),
(306,100,o),
(301,101,o),
(300,129,c),
(300,269,ls),
(300,297,o),
(303,299,o),
(348,300,c)
);
}
);
width = 1000;
},
{
layerId = m002;
shapes = (
{
closed = 1;
nodes = (
(299,700,o),
(300,636,o),
(300,606,cs),
(300,547,o),
(307,600,o),
(278,600,cs),
(200,600,ls),
(200,600,o),
(200,597,o),
(200,565,cs),
(200,0,ls),
(200,0,o),
(210,1,o),
(240,0,c),
(770,0,l),
(796,0,o),
(800,0,o),
(800,0,cs),
(800,300,l),
(800,300,o),
(755,300,o),
(726,300,cs),
(697,300,o),
(701,242,o),
(701,269,cs),
(701,296,o),
(700,399,o),
(700,399,cs),
(331,400,ls),
(309,400,o),
(305,400,o),
(305,400,c),
(305,622,l),
(305,639,o),
(305,693,o),
(305,693,cs),
(794,694,ls),
(794,694,o),
(700,600,o),
(700,600,cs),
(700,578,o),
(700,500,o),
(700,500,cs),
(733,500,o),
(800,500,o),
(800,500,cs),
(800,672,l),
(800,700,o),
(800,700,o),
(800,700,c),
(299,700,l)
);
},
{
closed = 1;
nodes = (
(693,391,ls),
(693,391,o),
(693,292,o),
(693,269,cs),
(692,6,ls),
(692,6,o),
(667,5,o),
(667,5,c),
(305,5,ls),
(305,5,o),
(305,6,o),
(305,129,c),
(305,269,ls),
(305,297,o),
(305,391,o),
(305,391,c)
);
}
);
width = 1000;
}
);
unicode = 54;
},
{
glyphname = seven;
lastChange = "2024-05-10 04:29:38 +0000";
layers = (
{
layerId = m01;
shapes = (
{
closed = 1;
nodes = (
(207,699,o),
(199,699,o),
(199,681,cs),
(200,542,l),
(201,514,o),
(198,500,o),
(224,500,cs),
(276,500,l),
(292,499,o),
(300,505,o),
(300,535,cs),
(300,565,o),
(301,600,o),
(323,600,cs),
(665,600,l),
(685,599,o),
(700,601,o),
(700,578,cs),
(700,531,ls),
(700,508,o),
(697,500,o),
(676,500,cs),
(614,500,ls),
(605,500,o),
(600,492,o),
(600,469,cs),
(600,446,o),
(604,401,o),
(577,400,c),
(515,400,ls),
(497,400,o),
(500,388,o),
(500,367,cs),
(500,307,o),
(483,301,o),
(449,300,cs),
(415,299,o),
(400,301,o),
(400,276,cs),
(400,207,o),
(385,200,o),
(354,200,cs),
(318,200,ls),
(302,200,o),
(300,194,o),
(300,172,cs),
(300,17,ls),
(300,7,o),
(303,0,o),
(329,0,cs),
(367,0,l),
(393,0,o),
(400,6,o),
(400,18,c),
(400,178,l),
(400,191,o),
(413,200,o),
(437,200,cs),
(482,200,ls),
(491,200,o),
(500,198,o),
(500,236,cs),
(500,274,o),
(498,300,o),
(532,300,cs),
(582,300,l),
(593,299,o),
(600,313,o),
(600,340,cs),
(600,367,o),
(596,400,o),
(627,400,cs),
(676,400,ls),
(687,400,o),
(700,409,o),
(700,445,cs),
(700,481,o),
(697,500,o),
(721,500,cs),
(783,500,l),
(791,500,o),
(800,502,o),
(800,536,cs),
(800,574,ls),
(800,590,o),
(793,599,o),
(766,600,cs),
(721,601,o),
(700,605,o),
(700,644,cs),
(700,683,o),
(707,702,o),
(671,700,c),
(234,700,l)
);
}
);
width = 1000;
},
{
layerId = m002;
shapes = (
{
closed = 1;
nodes = (
(200,700,o),
(200,696,o),
(200,677,cs),
(200,500,l),
(200,500,o),
(300,500,o),
(300,500,cs),
(207,694,l),
(207,694,o),
(225,694,o),
(225,694,cs),
(225,694,o),
(323,694,o),
(323,694,cs),
(693,692,l),
(693,692,o),
(694,624,o),
(694,601,cs),
(694,429,ls),
(694,406,o),
(694,500,o),
(655,500,cs),
(600,500,ls),
(600,500,o),
(598,351,o),
(598,328,cs),
(598,305,o),
(597,401,o),
(570,400,c),
(500,400,ls),
(500,400,o),
(500,264,o),
(500,243,cs),
(500,183,o),
(505,300,o),
(449,300,cs),
(415,300,o),
(400,300,o),
(400,300,cs),
(400,172,o),
(468,200,o),
(412,200,cs),
(300,200,ls),
(300,200,o),
(300,194,o),
(300,172,cs),
(300,0,ls),
(300,0,o),
(303,0,o),
(329,0,cs),
(367,0,l),
(393,0,o),
(400,0,o),
(400,0,c),
(400,148,l),
(400,178,o),
(437,200,o),
(452,200,cs),
(504,200,ls),
(504,200,o),
(504,198,o),
(504,236,cs),
(504,274,o),
(498,300,o),
(532,300,cs),
(600,300,l),
(600,300,o),
(600,313,o),
(600,340,cs),
(600,367,o),
(596,400,o),
(627,400,cs),
(676,400,ls),
(687,400,o),
(700,400,o),
(700,400,cs),
(700,436,o),
(697,500,o),
(721,500,cs),
(800,500,l),
(800,500,o),
(800,502,o),
(800,536,cs),
(800,574,ls),
(800,590,o),
(800,600,o),
(800,600,cs),
(754,600,o),
(700,605,o),
(700,644,cs),
(700,683,o),
(700,700,o),
(700,700,c),
(200,700,l)
);
}
);
width = 1000;
}
);
unicode = 55;
},
{
glyphname = eight;
lastChange = "2024-05-10 04:39:28 +0000";
layers = (
{
layerId = m01;
shapes = (
{
closed = 1;
nodes = (
(309,699,o),
(299,703,o),
(299,677,cs),
(299,651,o),
(303,600,o),
(264,600,cs),
(225,600,o),
(200,593,o),
(200,566,cs),
(200,433,ls),
(200,407,o),
(204,400,o),
(233,400,cs),
(290,400,o),
(300,400,o),
(300,360,cs),
(300,294,o),
(289,300,o),
(249,300,cs),
(206,300,o),
(200,300,o),
(200,274,cs),
(200,34,l),
(201,9,o),
(203,2,o),
(228,0,c),
(775,0,l),
(793,-2,o),
(800,18,o),
(800,50,cs),
(800,262,ls),
(800,289,o),
(782,300,o),
(754,300,cs),
(726,300,o),
(701,292,o),
(700,336,cs),
(699,380,o),
(698,400,o),
(732,400,cs),
(789,400,o),
(800,399,o),
(800,438,cs),
(800,576,ls),
(800,587,o),
(798,600,o),
(747,600,cs),
(724,600,o),
(701,612,o),
(701,645,cs),
(701,697,o),
(696,699,o),
(665,700,c),
(342,700,l)
);
},
{
closed = 1;
nodes = (
(668,600,ls),
(686,600,o),
(700,602,o),
(700,574,cs),
(700,440,ls),
(700,406,o),
(694,400,o),
(672,400,cs),
(331,400,ls),
(307,400,o),
(301,406,o),
(300,426,c),
(299,572,ls),
(299,601,o),
(309,601,o),
(350,600,c)
);
},
{
closed = 1;
nodes = (
(669,300,ls),
(687,300,o),
(700,292,o),
(700,272,c),
(700,131,l),
(700,107,o),
(693,101,o),
(674,100,c),
(322,100,l),
(299,101,o),
(300,108,o),
(300,133,cs),
(300,278,ls),
(300,297,o),
(313,300,o),
(342,300,c)
);
}
);
width = 1000;
},
{
layerId = m002;
shapes = (
{
closed = 1;
nodes = (
(294,700,o),
(200,700,o),
(200,700,cs),
(200,700,o),
(200,689,o),
(200,600,cs),
(200,600,o),
(200,593,o),
(200,566,cs),
(200,400,ls),
(200,400,o),
(204,400,o),
(233,400,cs),
(316,400,o),
(298,508,o),
(300,431,cs),
(302,365,o),
(298,300,o),
(298,300,cs),
(256,300,o),
(200,300,o),
(200,300,cs),
(200,0,l),
(200,0,o),
(228,0,o),
(228,0,c),
(800,0,l),
(800,0,o),
(800,18,o),
(800,50,cs),
(800,300,ls),
(800,300,o),
(754,300,o),
(726,300,cs),
(698,300,o),
(701,223,o),
(700,267,cs),
(699,311,o),
(701,395,o),
(701,395,cs),
(741,395,o),
(800,395,o),
(800,395,cs),
(800,600,ls),
(800,600,o),
(800,700,o),
(800,700,cs),
(777,700,o),
(728,700,o),
(728,700,cs),
(728,700,o),
(706,700,o),
(706,700,c),
(294,700,l)
);
},
{
closed = 1;
nodes = (
(700,693,ls),
(700,693,o),
(700,602,o),
(700,574,cs),
(700,424,ls),
(700,395,o),
(763,400,o),
(707,400,cs),
(331,400,ls),
(300,400,o),
(304,334,o),
(303,354,c),
(304,689,ls),
(304,694,o),
(275,694,o),
(316,693,c)
);
},
{
closed = 1;
nodes = (
(695,395,ls),
(695,395,o),
(697,292,o),
(697,272,c),
(697,131,l),
(697,107,o),
(696,8,o),
(696,8,c),
(320,7,l),
(297,8,o),
(302,-10,o),
(302,15,cs),
(302,278,ls),
(302,297,o),
(298,395,o),
(327,395,c)
);
}
);
width = 1000;
}
);
unicode = 56;
},
{
glyphname = nine;
lastChange = "2024-05-10 04:41:25 +0000";
layers = (
{
layerId = m01;
shapes = (
{
closed = 1;
nodes = (
(311,701,o),
(300,700,o),
(300,675,cs),
(300,610,o),
(297,601,o),
(248,600,cs),
(199,599,o),
(200,593,o),
(200,556,cs),
(200,345,ls),
(200,303,o),
(203,300,o),
(232,300,cs),
(656,300,l),
(686,301,o),
(700,297,o),
(700,271,cs),
(700,138,l),
(701,112,o),
(679,101,o),
(657,100,c),
(235,99,l),
(211,100,o),
(200,99,o),
(200,77,c),
(200,23,l),
(200,0,o),
(216,0,o),
(240,0,cs),
(780,0,l),
(801,0,o),
(799,23,o),
(800,65,c),
(800,662,l),
(797,686,o),
(776,703,o),
(746,700,c),
(348,700,l)
);
},
{
closed = 1;
nodes = (
(675,600,ls),
(689,600,o),
(700,594,o),
(700,578,c),
(700,433,l),
(700,399,o),
(692,401,o),
(672,400,c),
(323,400,ls),
(304,400,o),
(300,402,o),
(300,435,cs),
(300,576,ls),
(300,598,o),
(316,600,o),
(340,600,c)
);
}
);
width = 1000;
},
{
layerId = m002;
shapes = (
{
closed = 1;
nodes = (
(300,700,o),
(300,700,o),
(300,675,cs),
(300,610,o),
(249,600,o),
(200,600,cs),
(200,600,o),
(200,593,o),
(200,556,cs),
(200,300,ls),
(200,300,o),
(203,300,o),
(232,300,cs),
(656,300,l),
(802,300,o),
(700,310,o),
(700,284,cs),
(700,11,l),
(700,-1,o),
(706,10,o),
(684,9,c),
(235,9,l),
(211,10,o),
(200,100,o),
(200,100,c),
(200,0,l),
(200,0,o),
(216,0,o),
(240,0,cs),
(780,0,l),
(800,0,o),
(800,0,o),
(800,0,c),
(800,662,l),
(800,686,o),
(800,700,o),
(800,700,c),
(300,700,l)
);
},
{
closed = 1;
nodes = (
(793,689,ls),
(793,689,o),
(700,594,o),
(700,578,c),
(700,433,l),
(700,399,o),
(698,306,o),
(698,306,c),
(305,306,ls),
(305,306,o),
(304,397,o),
(304,400,cs),
(304,691,ls),
(304,713,o),
(292,689,o),
(316,689,c)
);
}
);
width = 1000;
}
);
unicode = 57;
},
{
export = 0;
glyphname = pixel;
lastChange = "2024-05-10 01:55:43 +0000";
layers = (
{
layerId = m01;
shapes = (
{
closed = 1;
nodes = (
(100,0,l),
(100,100,l),
(0,100,l),
(0,0,l)
);
}
